<?xml version="1.0" encoding="UTF-8"?>
<svg version="1.1" xmlns="http://www.w3.org/2000/svg" width="568" height="252">
<path d="M0 0 C0.9477832 -0.00953201 1.89556641 -0.01906403 2.87207031 -0.02888489 C4.39719238 -0.02751778 4.39719238 -0.02751778 5.953125 -0.02612305 C7.52852051 -0.03255074 7.52852051 -0.03255074 9.13574219 -0.03910828 C11.35481038 -0.0448476 13.57389738 -0.04535477 15.79296875 -0.04101562 C19.19042968 -0.03785361 22.58702159 -0.06132756 25.984375 -0.08666992 C28.1406239 -0.08894271 30.29687514 -0.0896465 32.453125 -0.08862305 C33.46987305 -0.09783279 34.48662109 -0.10704254 35.53417969 -0.11653137 C36.95585449 -0.10718819 36.95585449 -0.10718819 38.40625 -0.09765625 C39.23801758 -0.09828568 40.06978516 -0.0989151 40.92675781 -0.0995636 C43.70077523 0.35646907 45.10447091 1.45184046 47.203125 3.2746582 C46.94751177 5.6177795 46.61041728 7.95309223 46.203125 10.2746582 C43.85459972 11.44892084 42.46538435 11.38973993 39.8515625 11.37231445 C38.57539063 11.36748047 38.57539063 11.36748047 37.2734375 11.36254883 C36.38398438 11.35416992 35.49453125 11.34579102 34.578125 11.3371582 C33.23234375 11.33039062 33.23234375 11.33039062 31.859375 11.32348633 C29.64055852 11.31168411 27.42187482 11.29521976 25.203125 11.2746582 C25.20978683 11.89440018 25.21644867 12.51414215 25.22331238 13.15266418 C25.28959009 19.5924461 25.33489409 26.03213142 25.36791992 32.47216797 C25.38302316 34.87683038 25.40350708 37.28146519 25.42944336 39.68603516 C25.46575851 43.13882251 25.482836 46.59124624 25.49609375 50.04418945 C25.51157761 51.12239456 25.52706146 52.20059967 25.54301453 53.31147766 C25.54324112 54.31228867 25.54346771 55.31309967 25.54370117 56.34423828 C25.55036301 57.22582108 25.55702484 58.10740387 25.56388855 59.01570129 C25.13262124 61.71612452 24.29783087 62.5863178 22.203125 64.2746582 C23.04875 64.37262695 23.894375 64.4705957 24.765625 64.5715332 C34.58519197 65.86593067 41.83487121 67.81291436 48.66015625 75.26293945 C55.35840215 83.9960955 55.39337086 94.71780383 54.203125 105.2746582 C52.75308552 111.64087432 50.27977606 116.06475244 45.203125 120.2746582 C44.0584375 121.3265332 44.0584375 121.3265332 42.890625 122.3996582 C34.02508393 128.58491941 23.45340915 128.49543977 13.015625 128.6496582 C11.55866211 128.70573242 11.55866211 128.70573242 10.07226562 128.76293945 C8.66170898 128.7803418 8.66170898 128.7803418 7.22265625 128.7980957 C6.37807861 128.81791504 5.53350098 128.83773437 4.66333008 128.8581543 C0.74075743 127.92782299 -0.50224081 126.60536748 -2.796875 123.2746582 C-3.51944809 119.21978136 -3.44957382 115.22352059 -3.390625 111.11450195 C-3.39066528 109.93247696 -3.39070557 108.75045197 -3.39074707 107.53260803 C-3.3853915 105.036984 -3.36780754 102.54136041 -3.33886719 100.04589844 C-3.29698872 96.22254011 -3.29780132 92.40094173 -3.3046875 88.57739258 C-3.29419594 86.15225011 -3.28125803 83.72711673 -3.265625 81.30200195 C-3.26542358 80.15714828 -3.26522217 79.01229462 -3.26501465 77.83274841 C-3.24910278 76.76806839 -3.23319092 75.70338837 -3.21679688 74.60644531 C-3.20837769 73.67110458 -3.1999585 72.73576385 -3.19128418 71.77207947 C-2.72159579 68.79798601 -1.8938216 67.41562014 0.203125 65.2746582 C3.33984375 64.6652832 3.33984375 64.6652832 6.890625 64.5246582 C8.07011719 64.46793945 9.24960938 64.4112207 10.46484375 64.3527832 C11.36847656 64.32700195 12.27210938 64.3012207 13.203125 64.2746582 C13.3521962 62.2001226 13.3521962 62.2001226 12.203125 60.2746582 C12.11308534 58.70174613 12.08555991 57.12504245 12.08959961 55.54956055 C12.08967514 54.56869476 12.08975067 53.58782898 12.08982849 52.57723999 C12.09498978 51.51574738 12.10015106 50.45425476 12.10546875 49.3605957 C12.1068837 48.2758194 12.10829865 47.19104309 12.10975647 46.07339478 C12.11536698 42.5987882 12.12792128 39.12424539 12.140625 35.6496582 C12.14563865 33.29809663 12.15020179 30.94653405 12.15429688 28.5949707 C12.16533982 22.82151134 12.18208821 17.04808933 12.203125 11.2746582 C11.64326904 11.29560547 11.08341309 11.31655273 10.5065918 11.33813477 C7.96811914 11.42132022 5.429933 11.47332201 2.890625 11.5246582 C2.00955078 11.55817383 1.12847656 11.59168945 0.22070312 11.6262207 C-6.28366061 11.72514639 -6.28366061 11.72514639 -8.90625 9.4230957 C-10.09193586 6.56288858 -9.92897086 5.14263438 -8.796875 2.2746582 C-5.83538355 0.36979619 -3.48169502 0.01928607 0 0 Z M10.203125 75.2746582 C10.203125 89.1346582 10.203125 102.9946582 10.203125 117.2746582 C26.00659557 118.01866416 26.00659557 118.01866416 37.578125 111.4621582 C42.13877506 105.32282159 41.81703465 97.60259562 41.203125 90.2746582 C40.32033114 85.76424926 38.81875901 82.50387404 35.390625 79.3996582 C26.87632763 73.72345995 21.21009416 75.2746582 10.203125 75.2746582 Z " fill="#040108" transform="translate(206.796875,49.725341796875)"/>
<path d="M0 0 C19.47 0 38.94 0 59 0 C59.495 4.455 59.495 4.455 60 9 C62.11925604 11.11925604 66.6196093 10.41831017 69.5625 10.5625 C70.77196289 10.62727539 70.77196289 10.62727539 72.00585938 10.69335938 C74.00368805 10.79975262 76.0018207 10.90040888 78 11 C78.08765069 15.02069425 78.14061018 19.0411401 78.1875 23.0625 C78.21263672 24.19623047 78.23777344 25.32996094 78.26367188 26.49804688 C78.31865852 32.78485341 78.16986432 37.50047636 75 43 C71.69020705 46.01775239 68.15042238 46.77649341 63.6796875 46.5859375 C57.50993494 45.23686624 52.24677161 41.37917223 47 38 C46.26346191 37.52836426 45.52692383 37.05672852 44.76806641 36.57080078 C40.63044639 33.913305 36.51171671 31.22827796 32.40234375 28.52734375 C25.73788948 24.15614087 18.99614581 19.90694027 12.24609375 15.66943359 C9.81618344 14.13416393 7.40658408 12.57145738 5 11 C3.96746094 10.35160156 2.93492188 9.70320312 1.87109375 9.03515625 C0 7 0 7 0 0 Z " fill="#1E57D8" transform="translate(110,148)"/>
<path d="M0 0 C0.71188477 0.07001221 1.42376953 0.14002441 2.15722656 0.2121582 C4.83449934 0.54011431 7.01472661 0.86292021 9.28125 2.37890625 C13.76535271 9.03319969 19.5 19.97976454 19.5 28.1875 C15.32845924 28.97585848 11.38970485 29.31378259 7.14672852 29.31689453 C5.289338 29.32162277 5.289338 29.32162277 3.39442444 29.32644653 C2.05591801 29.32465626 0.71741191 29.32260518 -0.62109375 29.3203125 C-2.00822466 29.32098706 -3.39535545 29.32195835 -4.78248596 29.32321167 C-7.68320852 29.32468197 -10.58390019 29.32255592 -13.48461914 29.31787109 C-17.18757563 29.31217955 -20.89045953 29.31545341 -24.59341335 29.32144356 C-27.45628905 29.32507177 -30.31914778 29.32390013 -33.182024 29.32131577 C-34.5466621 29.32065247 -35.91130178 29.32145387 -37.27593803 29.32379532 C-39.18973635 29.32635848 -41.10354012 29.32175398 -43.01733398 29.31689453 C-44.10288071 29.31609894 -45.18842743 29.31530334 -46.30686951 29.31448364 C-49.75873891 29.17721053 -53.09016174 28.72948176 -56.5 28.1875 C-55.73039831 21.65373868 -53.75134358 15.73258354 -51.25 9.6875 C-50.97470459 8.98109375 -50.69940918 8.2746875 -50.41577148 7.546875 C-48.94596157 4.13727943 -47.99160234 2.43163359 -44.62109375 0.7578125 C-30.15095927 -1.88629217 -14.59843019 -1.56051097 0 0 Z " fill="#1E57D8" transform="translate(158.5,75.8125)"/>
<path d="M0 0 C3.0625 0.3125 3.0625 0.3125 4.61254883 1.4855957 C6.45723521 3.80985706 7.30662831 6.06815581 8.32421875 8.85546875 C8.72060547 9.92861328 9.11699219 11.00175781 9.52539062 12.10742188 C10.13157227 13.78674805 10.13157227 13.78674805 10.75 15.5 C11.16572266 16.63115234 11.58144531 17.76230469 12.00976562 18.92773438 C13.03478571 21.72003046 14.05202334 24.51491504 15.0625 27.3125 C15.52140625 26.1059375 15.9803125 24.899375 16.453125 23.65625 C17.07270552 22.04158563 17.69250913 20.42700685 18.3125 18.8125 C18.61285156 18.02101563 18.91320312 17.22953125 19.22265625 16.4140625 C24.4 2.975 24.4 2.975 27.0625 0.3125 C32.45187759 -0.15614153 32.45187759 -0.15614153 34.63012695 1.515625 C36.3598871 3.68556444 37.16512146 5.70182081 38.10546875 8.3125 C38.45673828 9.281875 38.80800781 10.25125 39.16992188 11.25 C39.52634766 12.260625 39.88277344 13.27125 40.25 14.3125 C40.61802734 15.323125 40.98605469 16.33375 41.36523438 17.375 C44.0625 24.90132189 44.0625 24.90132189 44.0625 28.3125 C44.7225 28.3125 45.3825 28.3125 46.0625 28.3125 C46.20558594 27.12720703 46.20558594 27.12720703 46.3515625 25.91796875 C47.26344997 21.29339657 48.80347591 17.03754025 50.4375 12.625 C50.74171875 11.77099609 51.0459375 10.91699219 51.359375 10.03710938 C51.66101563 9.21662109 51.96265625 8.39613281 52.2734375 7.55078125 C52.54462402 6.80868408 52.81581055 6.06658691 53.09521484 5.30200195 C54.158523 3.11500091 55.16036252 1.82333223 57.0625 0.3125 C60.125 0 60.125 0 63.0625 0.3125 C64.0525 1.3025 64.0525 1.3025 65.0625 2.3125 C65.03631074 10.43116986 62.01090523 17.62426767 59.07983398 25.07128906 C58.24608278 27.19748956 57.43768733 29.33220893 56.63085938 31.46875 C56.10305228 32.83130719 55.57380599 34.19330796 55.04296875 35.5546875 C54.56754639 36.7804248 54.09212402 38.00616211 53.60229492 39.26904297 C52.04533145 42.34643423 51.05075763 43.66835679 48.0625 45.3125 C44.7883613 45.72176734 42.87232547 45.79279235 40.00878906 44.09448242 C37.71160057 41.99122367 36.98197467 40.34105534 35.921875 37.42578125 C35.39980469 36.0190918 35.39980469 36.0190918 34.8671875 34.58398438 C34.51914062 33.60751953 34.17109375 32.63105469 33.8125 31.625 C33.44898438 30.63693359 33.08546875 29.64886719 32.7109375 28.63085938 C31.81672508 26.19530714 30.93446199 23.75608779 30.0625 21.3125 C29.31152565 23.10375849 28.56178538 24.89553436 27.8125 26.6875 C27.35617187 27.77546875 26.89984375 28.8634375 26.4296875 29.984375 C24.88575556 33.74274647 23.45010937 37.53576288 22.0546875 41.3515625 C21.0625 43.3125 21.0625 43.3125 18.0625 45.3125 C14.625 45.75 14.625 45.75 11.0625 45.3125 C7.48000394 41.66196815 5.63410097 37.47525993 3.79296875 32.78125 C3.50770828 32.06771362 3.22244781 31.35417725 2.92854309 30.61901855 C2.33178298 29.11805375 1.7395424 27.61528493 1.15161133 26.11083984 C0.25033491 23.81335374 -0.67370157 21.52593367 -1.59960938 19.23828125 C-2.17848528 17.77399095 -2.75600634 16.30916417 -3.33203125 14.84375 C-3.60900345 14.16340698 -3.88597565 13.48306396 -4.17134094 12.78210449 C-5.65288681 8.92506224 -6.38057809 6.25849352 -4.9375 2.3125 C-2.9375 0.3125 -2.9375 0.3125 0 0 Z " fill="#040108" transform="translate(310.9375,68.6875)"/>
<path d="M0 0 C4.15899204 2.33943302 5.53752602 4.55799317 7 9 C7.24050903 11.65132141 7.24050903 11.65132141 7.22705078 14.5246582 C7.22689972 15.60540115 7.22674866 16.6861441 7.22659302 17.79963684 C7.21627045 18.9550145 7.20594788 20.11039215 7.1953125 21.30078125 C7.1924826 22.49229294 7.18965271 23.68380463 7.18673706 24.91142273 C7.17555433 28.71188456 7.1504528 32.51210956 7.125 36.3125 C7.11496775 38.89127263 7.10584233 41.47004897 7.09765625 44.04882812 C7.0756212 50.36596603 7.04216232 56.68296609 7 63 C6.01 63 5.02 63 4 63 C3.75878418 62.26885986 3.51756836 61.53771973 3.26904297 60.78442383 C2.15756811 57.45343463 1.01667988 54.13325157 -0.125 50.8125 C-0.50398438 49.66201172 -0.88296875 48.51152344 -1.2734375 47.32617188 C-3.51471778 40.88249107 -5.10272848 36.64078499 -11 33 C-17.52703153 30.22253977 -24.44565584 29.88747058 -31.46484375 29.68359375 C-32.14301651 29.66281265 -32.82118927 29.64203156 -33.51991272 29.62062073 C-35.65901831 29.55590691 -37.79823296 29.4966091 -39.9375 29.4375 C-41.39909924 29.39424016 -42.86068797 29.35062366 -44.32226562 29.30664062 C-47.8813984 29.20030749 -51.44064997 29.0988267 -55 29 C-52.22446089 26.74483731 -49.46925103 24.56020255 -46.4609375 22.625 C-45.48000122 21.9916272 -45.48000122 21.9916272 -44.47924805 21.34545898 C-43.78484619 20.90145752 -43.09044434 20.45745605 -42.375 20 C-41.28022339 19.29629272 -41.28022339 19.29629272 -40.16333008 18.57836914 C-37.77819248 17.04807616 -35.38959895 15.52331619 -33 14 C-32.14744629 13.45585449 -31.29489258 12.91170898 -30.41650391 12.35107422 C-27.84219875 10.70999673 -25.26546688 9.07281837 -22.6875 7.4375 C-21.47876221 6.66889648 -21.47876221 6.66889648 -20.24560547 5.88476562 C-19.48779785 5.40587891 -18.72999023 4.92699219 -17.94921875 4.43359375 C-17.28237061 4.01134521 -16.61552246 3.58909668 -15.9284668 3.15405273 C-10.5227151 -0.08091223 -6.29892621 -0.82692548 0 0 Z " fill="#1E58D9" transform="translate(181,39)"/>
<path d="M0 0 C5.34655943 4.22751211 8.50067986 8.48988069 9.6796875 15.328125 C10.3203589 21.66494757 9.75865463 27.66613176 6.6796875 33.328125 C2.1895824 38.76684385 -3.33167382 42.22709569 -10.3203125 43.328125 C-16.95053939 43.56528708 -22.86697459 42.17825444 -28.3203125 38.328125 C-33.90950496 33.02336981 -35.80271842 27.78776504 -36.34375 20.2734375 C-36.2863365 13.05847425 -34.00593176 6.92631084 -28.9609375 1.734375 C-21.45542204 -4.69892396 -8.38570088 -5.11059882 0 0 Z M-22.3203125 11.328125 C-24.13665745 16.77715984 -24.28862916 23.00416503 -22.0703125 28.328125 C-19.28651937 31.50960287 -17.68417671 33.15401468 -13.3828125 33.703125 C-9.89435072 33.27596642 -8.08536876 32.47872432 -5.3203125 30.328125 C-3.07917117 26.91565544 -3.02177037 23.91514318 -3.0078125 19.890625 C-2.99105469 18.77816406 -2.97429687 17.66570312 -2.95703125 16.51953125 C-3.35678863 13.00768417 -4.24512896 11.15607119 -6.3203125 8.328125 C-12.57317518 3.80018995 -17.52233766 6.53015016 -22.3203125 11.328125 Z " fill="#040108" transform="translate(291.3203125,71.671875)"/>
<path d="M0 0 C0.33 0.66 0.66 1.32 1 2 C1.763125 2.2475 2.52625 2.495 3.3125 2.75 C6.95367287 4.44356878 8.08866732 6.51864405 10 10 C11.56964858 16.07243343 11.22384459 22.3342419 11.25 28.5625 C11.270625 29.79419922 11.29125 31.02589844 11.3125 32.29492188 C11.32023437 34.06899414 11.32023437 34.06899414 11.328125 35.87890625 C11.3374707 36.9572876 11.34681641 38.03566895 11.35644531 39.14672852 C10.95342457 42.37282672 10.3246204 43.74856704 8 46 C2.13878358 46.73265205 2.13878358 46.73265205 -0.68676758 44.91479492 C-2.68923965 41.99503503 -2.44015196 39.43255398 -2.51171875 35.92578125 C-2.53864555 34.90003242 -2.53864555 34.90003242 -2.56611633 33.8535614 C-2.62022075 31.67327 -2.6541134 29.49319744 -2.6875 27.3125 C-2.7206732 25.83265183 -2.75516287 24.35283255 -2.79101562 22.87304688 C-2.87594524 19.24890831 -2.94275635 15.62469348 -3 12 C-4.76949095 11.89184775 -6.54087487 11.81433917 -8.3125 11.75 C-9.79169922 11.68039063 -9.79169922 11.68039063 -11.30078125 11.609375 C-14.1040859 11.73659938 -14.1040859 11.73659938 -15.79296875 13.828125 C-17.85128301 17.53175843 -18.14822064 20.52372517 -18.24609375 24.69140625 C-18.27896484 25.80064453 -18.31183594 26.90988281 -18.34570312 28.05273438 C-18.40700056 30.39638303 -18.46427939 32.74014017 -18.51757812 35.08398438 C-18.55173828 36.19193359 -18.58589844 37.29988281 -18.62109375 38.44140625 C-18.6461499 39.45920166 -18.67120605 40.47699707 -18.69702148 41.52563477 C-19 44 -19 44 -21 46 C-27.24518274 46.56774389 -27.24518274 46.56774389 -29.69839478 44.72253418 C-31.98572929 41.69549356 -31.42519458 37.93033006 -31.3984375 34.28125 C-31.40274277 32.99982117 -31.40274277 32.99982117 -31.40713501 31.69250488 C-31.40917581 29.88695615 -31.40364483 28.08138531 -31.39111328 26.27587891 C-31.37505944 23.51023988 -31.39096099 20.74606225 -31.41015625 17.98046875 C-31.40817382 16.22655927 -31.40433015 14.4726507 -31.3984375 12.71875 C-31.40451019 11.89056763 -31.41058289 11.06238525 -31.4168396 10.20910645 C-31.34610379 4.44266872 -31.34610379 4.44266872 -29.65933228 2.28527832 C-28 1 -28 1 -25.0625 0.5625 C-21.38948075 1.08721704 -20.29767085 2.17209742 -18 5 C-17.401875 4.525625 -16.80375 4.05125 -16.1875 3.5625 C-12.68632761 1.06166258 -9.50234591 0.78254613 -5.3125 0.4375 C-4.31863281 0.35371094 -3.32476562 0.26992187 -2.30078125 0.18359375 C-1.54152344 0.12300781 -0.78226562 0.06242187 0 0 Z " fill="#040107" transform="translate(414,68)"/>
<path d="M0 0 C3.93665243 3.49132975 6.442658 8.46835726 6.9296875 13.72265625 C6.94515625 14.50511719 6.960625 15.28757813 6.9765625 16.09375 C7.00234375 16.87878906 7.028125 17.66382813 7.0546875 18.47265625 C6.94640625 19.15199219 6.838125 19.83132812 6.7265625 20.53125 C3.28022368 22.82880922 2.01587859 22.76768976 -2.03515625 22.7265625 C-3.15341797 22.72011719 -4.27167969 22.71367187 -5.42382812 22.70703125 C-7.17469727 22.68189453 -7.17469727 22.68189453 -8.9609375 22.65625 C-10.13978516 22.64722656 -11.31863281 22.63820312 -12.53320312 22.62890625 C-15.44681776 22.60531423 -18.36002642 22.5723954 -21.2734375 22.53125 C-21.6034375 23.52125 -21.9334375 24.51125 -22.2734375 25.53125 C-20.12000561 28.76139784 -19.00284139 30.28811537 -15.2734375 31.53125 C-9.36230341 31.94606643 -5.09359721 31.03172581 0.4296875 28.89453125 C2.7265625 28.53125 2.7265625 28.53125 5.0234375 29.94921875 C5.58546875 30.47128906 6.1475 30.99335938 6.7265625 31.53125 C6.6015625 33.78125 6.6015625 33.78125 5.7265625 36.53125 C-1.77814224 42.40449719 -10.11576869 42.56211079 -19.2734375 41.53125 C-26.48039459 39.50712981 -30.5932139 35.94196208 -34.2734375 29.53125 C-36.43327303 23.05174341 -36.50766352 14.88800312 -34.14453125 8.4609375 C-30.55303661 2.17816619 -26.44942327 -1.63626922 -19.4609375 -3.78125 C-12.22798305 -5.29672617 -6.10433597 -4.18305094 0 0 Z M-20.2734375 7.53125 C-22.65590359 10.1601781 -23.2734375 10.91959178 -23.2734375 14.53125 C-16.6734375 14.53125 -10.0734375 14.53125 -3.2734375 14.53125 C-4.71988664 8.97099979 -4.71988664 8.97099979 -8.2734375 5.53125 C-13.37897339 4.20759255 -16.11999005 4.18541733 -20.2734375 7.53125 Z " fill="#040107" transform="translate(406.2734375,136.46875)"/>
<path d="M0 0 C2.99934594 2.28251513 4.08209056 5.11058591 5.48046875 8.54296875 C5.92197266 9.61611328 6.36347656 10.68925781 6.81835938 11.79492188 C7.27017578 12.91447266 7.72199219 14.03402344 8.1875 15.1875 C8.65091797 16.31865234 9.11433594 17.44980469 9.59179688 18.61523438 C10.73461588 21.40748287 11.87037426 24.20239393 13 27 C16.22591508 20.73291387 18.94597371 14.38046318 21.53125 7.828125 C23.79082961 2.20917039 23.79082961 2.20917039 26 0 C29.5 -0.25 29.5 -0.25 33 0 C35 2 35 2 35.30981445 4.67553711 C34.94520719 8.58795411 33.69255328 11.68221577 32.04296875 15.19140625 C31.73933914 15.85913559 31.43570953 16.52686493 31.12287903 17.21482849 C30.48161302 18.61982667 29.83499778 20.02239435 29.18334961 21.42260742 C28.19109772 23.55476917 27.21427648 25.69345127 26.24023438 27.83398438 C25.61286472 29.203531 24.98463777 30.57268532 24.35546875 31.94140625 C24.0647197 32.57486465 23.77397064 33.20832306 23.47441101 33.86097717 C18.97641124 43.51179438 18.97641124 43.51179438 16 45 C12.625 45.375 12.625 45.375 9 45 C5.44320827 41.36106527 3.48295689 37.12745821 1.51171875 32.50390625 C1.20426224 31.79274155 0.89680573 31.08157684 0.58003235 30.34886169 C-0.06349597 28.85210453 -0.7028191 27.35353303 -1.33813477 25.85327148 C-2.31106869 23.56586507 -3.30806944 21.28998204 -4.30664062 19.01367188 C-4.93118564 17.55272287 -5.55428239 16.09115371 -6.17578125 14.62890625 C-6.47462723 13.95372452 -6.77347321 13.27854279 -7.08137512 12.582901 C-8.84182991 8.34332548 -9.37101246 5.42290373 -8 1 C-5.20129973 -0.39935013 -3.09501208 -0.25265405 0 0 Z " fill="#030107" transform="translate(332,133)"/>
<path d="M0 0 C1 2 1 2 0.06640625 5.625 C-0.42564349 7.08648108 -0.92739019 8.54472413 -1.4375 10 C-1.66115234 10.73734375 -1.88480469 11.4746875 -2.11523438 12.234375 C-2.88966552 14.42759601 -3.58975834 16.14559654 -5 18 C-7.64214518 19.11503985 -10.15446711 19.47020108 -13 20 C-14.54227549 21.62115832 -14.54227549 21.62115832 -15 23.625 C-15.33 24.73875 -15.66 25.8525 -16 27 C-13.69 27.66 -11.38 28.32 -9 29 C-9.15847412 29.71115967 -9.31694824 30.42231934 -9.48022461 31.1550293 C-9.99614802 33.97891634 -10.20430687 36.65298992 -10.31640625 39.51953125 C-10.35830078 40.54111328 -10.40019531 41.56269531 -10.44335938 42.61523438 C-10.48267578 43.67033203 -10.52199219 44.72542969 -10.5625 45.8125 C-10.60568359 46.88693359 -10.64886719 47.96136719 -10.69335938 49.06835938 C-10.79910983 51.71212082 -10.90120233 54.3559711 -11 57 C-33.39025179 45.42274583 -33.39025179 45.42274583 -37 37 C-37.76015186 32.4799572 -37.47552511 29.08073888 -35.625 24.875 C-29.02781262 17.64950906 -19.66649637 12.80192729 -11.4375 7.625 C-9.47714948 6.38915443 -7.51747487 5.15223582 -5.55859375 3.9140625 C-4.70579834 3.3773291 -3.85300293 2.8405957 -2.97436523 2.28759766 C-1.08036137 1.14903522 -1.08036137 1.14903522 0 0 Z " fill="#1D56D7" transform="translate(99,84)"/>
<path d="M0 0 C0.9375 2.9375 0.9375 2.9375 1 6 C-1.81853298 9.92102037 -6.04618445 10.16169852 -10.50390625 11.15625 C-13.3256895 11.82704596 -13.3256895 11.82704596 -15 15 C-15.31925993 17.64642063 -15.31925993 17.64642063 -15.30859375 20.62109375 C-15.33373047 21.72130859 -15.35886719 22.82152344 -15.38476562 23.95507812 C-15.41986189 26.27273141 -15.45112514 28.59044597 -15.47851562 30.90820312 C-15.50494141 32.00970703 -15.53136719 33.11121094 -15.55859375 34.24609375 C-15.57204834 35.25341553 -15.58550293 36.2607373 -15.59936523 37.29858398 C-16.06034562 40.40690087 -16.77132555 41.80221233 -19 44 C-25.00962663 44.75120333 -25.00962663 44.75120333 -27.69448853 42.71472168 C-29.99158033 39.69761061 -29.42517041 35.92703378 -29.3984375 32.28125 C-29.40274277 30.99982117 -29.40274277 30.99982117 -29.40713501 29.69250488 C-29.40917581 27.88695615 -29.40364483 26.08138531 -29.39111328 24.27587891 C-29.37505944 21.51023988 -29.39096099 18.74606225 -29.41015625 15.98046875 C-29.40817382 14.22655927 -29.40433015 12.4726507 -29.3984375 10.71875 C-29.40451019 9.89056763 -29.41058289 9.06238525 -29.4168396 8.20910645 C-29.34610379 2.44266872 -29.34610379 2.44266872 -27.65933228 0.28527832 C-26 -1 -26 -1 -23.0625 -1.4375 C-19.38948075 -0.91278296 -18.29767085 0.17209742 -16 3 C-14.948125 2.360625 -13.89625 1.72125 -12.8125 1.0625 C-8.47674056 -1.39384759 -4.3219945 -3.55020977 0 0 Z " fill="#040007" transform="translate(299,134)"/>
<path d="M0 0 C2.81569321 2.50425923 3.01064335 4.10678832 3.38818359 7.89477539 C3.40792657 9.46228174 3.41031979 11.0300706 3.3984375 12.59765625 C3.40274277 13.84366859 3.40274277 13.84366859 3.40713501 15.11485291 C3.40917297 16.86734704 3.40366181 18.61986406 3.39111328 20.37231445 C3.37503493 23.0566681 3.39098087 25.7395208 3.41015625 28.42382812 C3.40817417 30.12760749 3.40433122 31.83138592 3.3984375 33.53515625 C3.40754654 34.73991356 3.40754654 34.73991356 3.4168396 35.9690094 C3.34727649 41.46882926 3.34727649 41.46882926 1.69384766 43.99780273 C-1.28132839 45.75812237 -3.66071416 45.47704083 -7 45 C-10.35989717 40.97653886 -10.42689299 37.01905656 -10.36328125 31.99609375 C-10.36377975 31.23579361 -10.36427826 30.47549347 -10.36479187 29.69215393 C-10.36245944 28.09104792 -10.35278005 26.48993768 -10.33618164 24.88891602 C-10.31254237 22.44188603 -10.31563254 19.9959437 -10.32226562 17.54882812 C-10.31668968 15.98957686 -10.30958033 14.43033016 -10.30078125 12.87109375 C-10.30169266 12.14184189 -10.30260406 11.41259003 -10.30354309 10.66123962 C-10.25232275 6.98422497 -10.1577839 4.06356738 -8 1 C-5.17116253 -0.41441874 -3.12623255 -0.31900332 0 0 Z " fill="#040107" transform="translate(314,133)"/>
<path d="M0 0 C4.15899204 2.33943302 5.53752602 4.55799317 7 9 C7.24050903 11.65132141 7.24050903 11.65132141 7.22705078 14.5246582 C7.22689972 15.60540115 7.22674866 16.6861441 7.22659302 17.79963684 C7.21627045 18.9550145 7.20594788 20.11039215 7.1953125 21.30078125 C7.1924826 22.49229294 7.18965271 23.68380463 7.18673706 24.91142273 C7.17555433 28.71188456 7.1504528 32.51210956 7.125 36.3125 C7.11496775 38.89127263 7.10584233 41.47004897 7.09765625 44.04882812 C7.0756212 50.36596603 7.04216232 56.68296609 7 63 C6.01 63 5.02 63 4 63 C3.75878418 62.26885986 3.51756836 61.53771973 3.26904297 60.78442383 C2.15756811 57.45343463 1.01667988 54.13325157 -0.125 50.8125 C-0.50398438 49.66201172 -0.88296875 48.51152344 -1.2734375 47.32617188 C-3.51471778 40.88249107 -5.10272848 36.64078499 -11 33 C-17.52703153 30.22253977 -24.44565584 29.88747058 -31.46484375 29.68359375 C-32.14301651 29.66281265 -32.82118927 29.64203156 -33.51991272 29.62062073 C-35.65901831 29.55590691 -37.79823296 29.4966091 -39.9375 29.4375 C-41.39909924 29.39424016 -42.86068797 29.35062366 -44.32226562 29.30664062 C-47.8813984 29.20030749 -51.44064997 29.0988267 -55 29 C-51.34126586 26.03829675 -47.61879131 23.34206021 -43.6875 20.75 C-42.08455078 19.69039062 -42.08455078 19.69039062 -40.44921875 18.609375 C-39.64097656 18.07828125 -38.83273438 17.5471875 -38 17 C-37.34 17.33 -36.68 17.66 -36 18 C-39.53162764 20.90839923 -43.18183118 23.48275851 -47 26 C-46.36610352 26.02505615 -45.73220703 26.0501123 -45.07910156 26.07592773 C-38.98309774 26.32005575 -32.88898584 26.59249673 -26.79492188 26.88085938 C-24.54665376 26.9766975 -22.29674554 27.03366116 -20.046875 27.078125 C-14.31226535 27.28398278 -10.55922432 27.94252813 -6.45703125 32.14453125 C-1.23700789 38.79201408 1.12109108 45.82750998 3 54 C3.66 54 4.32 54 5 54 C4.95832577 47.68238242 4.88599515 41.36564544 4.79248047 35.04858398 C4.76427873 32.90022739 4.74306025 30.75176719 4.72900391 28.60327148 C4.70756377 25.51231881 4.66090689 22.42261078 4.609375 19.33203125 C4.60814636 18.37351761 4.60691772 17.41500397 4.60565186 16.42744446 C4.48534143 10.9328282 4.03345769 8.06909427 0 4 C0 3.34 0 2.68 0 2 C-5.19209404 1.78807779 -9.126739 2.4087311 -14 4 C-14 3.34 -14 2.68 -14 2 C-9.44618697 -0.6292223 -5.14168087 -0.67500186 0 0 Z " fill="#1242BA" transform="translate(181,39)"/>
<path d="M0 0 C5.91339719 0.87246844 12.6349892 2.6349892 16.9375 6.9375 C17.0625 9.5625 17.0625 9.5625 16.9375 11.9375 C14.25 13.125 14.25 13.125 10.9375 13.9375 C10.215625 13.48375 9.49375 13.03 8.75 12.5625 C4.89227008 10.33358938 1.73254766 10.79676 -2.63671875 11.02734375 C-5.0625 10.9375 -5.0625 10.9375 -7.0625 8.9375 C-7.62118491 3.68586188 -7.62118491 3.68586188 -5.796875 1.2421875 C-3.60290786 -0.40822922 -2.69278398 -0.34698305 0 0 Z " fill="#164AC0" transform="translate(100.0625,118.0625)"/>
<path d="M0 0 C1 1 1 1 1.1328125 3.03125 C1.13023437 3.8459375 1.12765625 4.660625 1.125 5.5 C1.12886719 6.72203125 1.12886719 6.72203125 1.1328125 7.96875 C1 10 1 10 0 11 C-3.04351168 11.03179788 -6.07505225 10.93147433 -9.1171875 10.83984375 C-12.19960937 10.76640625 -12.19960937 10.76640625 -15 13 C-20.34545455 13.32727273 -20.34545455 13.32727273 -23 12 C-22.4505058 8.15354057 -20.90719042 6.5058611 -18 4 C-15.1953125 2.734375 -15.1953125 2.734375 -12.125 1.75 C-11.11695313 1.41484375 -10.10890625 1.0796875 -9.0703125 0.734375 C-5.91408233 -0.02055028 -3.23259795 -0.20733864 0 0 Z " fill="#1250D4" transform="translate(185,118)"/>
<path d="M0 0 C0 2 0 2 -1.3671875 3.390625 C-1.90601562 3.92171875 -2.44484375 4.4528125 -3 5 C-6.05069802 9.83903823 -7.52710511 14.32526133 -8 20 C-8.66 20 -9.32 20 -10 20 C-10 21.32 -10 22.64 -10 24 C-5.84614491 25.38461836 -1.85773084 25.38277313 2.5 25.5625 C4.00433594 25.62618774 4.00433594 25.62618774 5.5390625 25.69116211 C23.67852434 26.34482456 41.85215547 26.08075095 60 26 C59.50886719 24.37384766 59.50886719 24.37384766 59.0078125 22.71484375 C58.06956629 19.25642459 57.82670136 16.5526221 58 13 C59.76337678 15.64506516 60.6560851 17.59213967 61.625 20.5625 C61.88539063 21.34753906 62.14578125 22.13257812 62.4140625 22.94140625 C63 25 63 25 63 27 C58.82845924 27.78835848 54.88970485 28.12628259 50.64672852 28.12939453 C48.789338 28.13412277 48.789338 28.13412277 46.89442444 28.13894653 C45.55591801 28.13715626 44.21741191 28.13510518 42.87890625 28.1328125 C41.49177534 28.13348706 40.10464455 28.13445835 38.71751404 28.13571167 C35.81679148 28.13718197 32.91609981 28.13505592 30.01538086 28.13037109 C26.31242437 28.12467955 22.60954047 28.12795341 18.90658665 28.13394356 C16.04371095 28.13757177 13.18085222 28.13640013 10.317976 28.13381577 C8.9533379 28.13315247 7.58869822 28.13395387 6.22406197 28.13629532 C4.31026365 28.13885848 2.39645988 28.13425398 0.48266602 28.12939453 C-0.60288071 28.12859894 -1.68842743 28.12780334 -2.80686951 28.12698364 C-6.25873891 27.98971053 -9.59016174 27.54198176 -13 27 C-12.21800801 20.3610476 -10.15452616 14.52285678 -7.5 8.4375 C-7.19118896 7.72271484 -6.88237793 7.00792969 -6.56420898 6.27148438 C-3.75277572 0 -3.75277572 0 0 0 Z " fill="#2A509B" transform="translate(115,77)"/>
<path d="M0 0 C1 2 1 2 0.06640625 5.625 C-0.42564349 7.08648108 -0.92739019 8.54472413 -1.4375 10 C-1.77297852 11.10601562 -1.77297852 11.10601562 -2.11523438 12.234375 C-2.88966552 14.42759601 -3.58975834 16.14559654 -5 18 C-7.64214518 19.11503985 -10.15446711 19.47020108 -13 20 C-14.54227549 21.62115832 -14.54227549 21.62115832 -15 23.625 C-15.33 24.73875 -15.66 25.8525 -16 27 C-13.69 27.66 -11.38 28.32 -9 29 C-9.15847412 29.71115967 -9.31694824 30.42231934 -9.48022461 31.1550293 C-9.99614802 33.97891634 -10.20430687 36.65298992 -10.31640625 39.51953125 C-10.35830078 40.54111328 -10.40019531 41.56269531 -10.44335938 42.61523438 C-10.50233398 44.19788086 -10.50233398 44.19788086 -10.5625 45.8125 C-10.60568359 46.88693359 -10.64886719 47.96136719 -10.69335938 49.06835938 C-10.79910983 51.71212082 -10.90120233 54.3559711 -11 57 C-12.32 56.34 -13.64 55.68 -15 55 C-14.01 54.505 -14.01 54.505 -13 54 C-12.67 46.41 -12.34 38.82 -12 31 C-13.65 30.67 -15.3 30.34 -17 30 C-18 29 -18 29 -18.375 26.3125 C-17.86188757 21.78000686 -16.37376653 20.01485519 -13 17 C-9.1875 16.625 -9.1875 16.625 -6 17 C-6.33 15.35 -6.66 13.7 -7 12 C-9.7175283 12.46586199 -12.02841528 13.012475 -14.5625 14.125 C-17 15 -17 15 -21 14 C-14.07 9.38 -7.14 4.76 0 0 Z " fill="#164ECB" transform="translate(99,84)"/>
<path d="M0 0 C2.4375 1.5625 2.4375 1.5625 4 4 C3.9375 7.625 3.9375 7.625 3 11 C-0.51824511 13.34549674 -1.85775694 13.57991403 -6 13 C-8.9375 10.8125 -8.9375 10.8125 -11 8 C-11.07714936 4.75972695 -10.50949562 3.54723603 -8.3125 1.1875 C-5.26453845 -0.37766945 -3.38514427 -0.49366687 0 0 Z " fill="#030207" transform="translate(314,113)"/>
<path d="M0 0 C0.66 1.65 1.32 3.3 2 5 C0.68 5 -0.64 5 -2 5 C-2.495 3.515 -2.495 3.515 -3 2 C-4.32 3.32 -5.64 4.64 -7 6 C-7.66 5.67 -8.32 5.34 -9 5 C-9 4.34 -9 3.68 -9 3 C-9.680625 3.28875 -10.36125 3.5775 -11.0625 3.875 C-14 5 -14 5 -17.6875 5.6875 C-18.780625 6.120625 -19.87375 6.55375 -21 7 C-22.54086322 10.51400668 -22.54086322 10.51400668 -23 14 C-23.66 14 -24.32 14 -25 14 C-25 13.34 -25 12.68 -25 12 C-26.0725 12.309375 -27.145 12.61875 -28.25 12.9375 C-30.82866222 13.66812096 -33.39512102 14.37482904 -36 15 C-32.69172486 11.51797359 -28.86957156 9.06714442 -24.875 6.4375 C-24.153125 5.94314453 -23.43125 5.44878906 -22.6875 4.93945312 C-15.35007275 0.11529055 -8.65486834 -1.84146135 0 0 Z " fill="#1B57D8" transform="translate(181,41)"/>
<path d="M0 0 C4.15899204 2.33943302 5.53752602 4.55799317 7 9 C7.24050903 11.65132141 7.24050903 11.65132141 7.22705078 14.5246582 C7.22689972 15.60540115 7.22674866 16.6861441 7.22659302 17.79963684 C7.21627045 18.9550145 7.20594788 20.11039215 7.1953125 21.30078125 C7.1924826 22.49229294 7.18965271 23.68380463 7.18673706 24.91142273 C7.17555433 28.71188456 7.1504528 32.51210956 7.125 36.3125 C7.11496775 38.89127263 7.10584233 41.47004897 7.09765625 44.04882812 C7.0756212 50.36596603 7.04216232 56.68296609 7 63 C6.01 63 5.02 63 4 63 C3.67 61.02 3.34 59.04 3 57 C3.66 57.66 4.32 58.32 5 59 C5.12713207 52.29244298 5.21449022 45.58519845 5.2746582 38.87670898 C5.29974947 36.59631743 5.33383036 34.31600589 5.37719727 32.03588867 C5.43808395 28.7515892 5.46626447 25.46835609 5.48828125 22.18359375 C5.52699089 20.66287514 5.52699089 20.66287514 5.56648254 19.11143494 C5.56914812 12.33223675 4.36974349 9.17759523 0 4 C0 3.34 0 2.68 0 2 C-5.19209404 1.78807779 -9.126739 2.4087311 -14 4 C-14 3.34 -14 2.68 -14 2 C-9.44618697 -0.6292223 -5.14168087 -0.67500186 0 0 Z " fill="#1E45A9" transform="translate(181,39)"/>
<path d="M0 0 C1 1 1 1 1.1328125 3.03125 C1.13023437 3.8459375 1.12765625 4.660625 1.125 5.5 C1.12886719 6.72203125 1.12886719 6.72203125 1.1328125 7.96875 C1 10 1 10 0 11 C-3.04351168 11.03179788 -6.07505225 10.93147433 -9.1171875 10.83984375 C-12.19960937 10.76640625 -12.19960937 10.76640625 -15 13 C-20.34545455 13.32727273 -20.34545455 13.32727273 -23 12 C-22.45650964 8.19556745 -20.96915847 6.3918221 -18 4 C-15.25 3.25 -15.25 3.25 -13 3 C-13 3.66 -13 4.32 -13 5 C-13.78375 5.268125 -14.5675 5.53625 -15.375 5.8125 C-18.28114923 6.84814432 -18.28114923 6.84814432 -20 10 C-19.33613281 9.83628906 -18.67226562 9.67257813 -17.98828125 9.50390625 C-14.37116663 8.89396143 -10.84139292 8.89204487 -7.1875 8.9375 C-6.49462891 8.94201172 -5.80175781 8.94652344 -5.08789062 8.95117188 C-3.39188932 8.96286844 -1.69593297 8.98080076 0 9 C0 7.02 0 5.04 0 3 C-3.96 3 -7.92 3 -12 3 C-8.51975298 -0.48024702 -4.77230692 -0.21210253 0 0 Z " fill="#1546B8" transform="translate(185,118)"/>
<path d="M0 0 C0.33 0 0.66 0 1 0 C1.06058594 0.63808594 1.12117187 1.27617187 1.18359375 1.93359375 C1.26738281 2.75988281 1.35117188 3.58617187 1.4375 4.4375 C1.51871094 5.26121094 1.59992188 6.08492187 1.68359375 6.93359375 C1.78930815 8.98662025 1.78930815 8.98662025 3 10 C5.86055414 10.23715955 8.69727656 10.42190617 11.5625 10.5625 C14.346875 10.706875 17.13125 10.85125 20 11 C20 19.25 20 27.5 20 36 C19.34 36 18.68 36 18 36 C18 28.41 18 20.82 18 13 C13.1983779 13.07889429 13.1983779 13.07889429 8.3972168 13.18017578 C4.68552129 13.21099473 3.16466336 13.10977558 0 11 C-0.29296875 8.3984375 -0.29296875 8.3984375 -0.1875 5.375 C-0.16042969 4.37210938 -0.13335937 3.36921875 -0.10546875 2.3359375 C-0.07066406 1.56507813 -0.03585938 0.79421875 0 0 Z " fill="#1A46B0" transform="translate(168,148)"/>
<path d="M0 0 C0 2 0 2 -1.3671875 3.390625 C-1.90601562 3.92171875 -2.44484375 4.4528125 -3 5 C-6.05069802 9.83903823 -7.52710511 14.32526133 -8 20 C-8.66 20 -9.32 20 -10 20 C-10 21.32 -10 22.64 -10 24 C-6.95236066 25.01587978 -4.65281033 25.19804406 -1.45703125 25.31640625 C-0.38388672 25.35830078 0.68925781 25.40019531 1.79492188 25.44335938 C2.91447266 25.48267578 4.03402344 25.52199219 5.1875 25.5625 C6.31865234 25.60568359 7.44980469 25.64886719 8.61523438 25.69335938 C11.41003354 25.79949099 14.20492162 25.90154385 17 26 C17 26.33 17 26.66 17 27 C7.1 27 -2.8 27 -13 27 C-11.61879439 20.09397196 -10.33942768 14.65691585 -7.5 8.4375 C-7.19191406 7.72787109 -6.88382812 7.01824219 -6.56640625 6.28710938 C-3.76277661 0 -3.76277661 0 0 0 Z " fill="#1747B3" transform="translate(115,77)"/>
<path d="M0 0 C0.66 0 1.32 0 2 0 C1.67 1.32 1.34 2.64 1 4 C-0.258125 4.185625 -1.51625 4.37125 -2.8125 4.5625 C-5.41870604 5.1852218 -6.63060889 5.47900211 -8.19921875 7.69140625 C-9.12538373 9.83259076 -9.12538373 9.83259076 -10 13 C-7.69 13.66 -5.38 14.32 -3 15 C-3.15847412 15.71115967 -3.31694824 16.42231934 -3.48022461 17.1550293 C-3.99614802 19.97891634 -4.20430687 22.65298992 -4.31640625 25.51953125 C-4.35830078 26.54111328 -4.40019531 27.56269531 -4.44335938 28.61523438 C-4.50233398 30.19788086 -4.50233398 30.19788086 -4.5625 31.8125 C-4.62727539 33.42415039 -4.62727539 33.42415039 -4.69335938 35.06835938 C-4.79910983 37.71212082 -4.90120233 40.3559711 -5 43 C-6.32 42.34 -7.64 41.68 -9 41 C-8.01 40.505 -8.01 40.505 -7 40 C-6.67 32.41 -6.34 24.82 -6 17 C-7.65 16.67 -9.3 16.34 -11 16 C-12 15 -12 15 -12.375 12.3125 C-11.86188757 7.78000686 -10.37376653 6.01485519 -7 3 C-3.1875 2.625 -3.1875 2.625 0 3 C0 2.01 0 1.02 0 0 Z " fill="#1D4EB1" transform="translate(93,98)"/>
<path d="M0 0 C0.66 0 1.32 0 2 0 C1.814375 1.03125 1.62875 2.0625 1.4375 3.125 C1.02692918 6.76148442 1.221691 9.45437009 2 13 C2.78375 13.0825 3.5675 13.165 4.375 13.25 C5.24125 13.4975 6.1075 13.745 7 14 C7.30292969 14.60972656 7.60585937 15.21945313 7.91796875 15.84765625 C9.2139024 18.42548818 10.61372484 19.50416939 12.9375 21.1875 C13.62714844 21.69667969 14.31679687 22.20585937 15.02734375 22.73046875 C17.07228354 24.16158808 17.07228354 24.16158808 20 25 C19.67 25.99 19.34 26.98 19 28 C16.57635062 26.44753802 14.16144216 24.88372618 11.75 23.3125 C11.06808594 22.87744141 10.38617188 22.44238281 9.68359375 21.99414062 C5.09405439 18.98643279 1.51023481 16.02046963 -1 11 C-1.09499503 9.50243129 -1.12987198 8.00057068 -1.125 6.5 C-1.12757812 5.7059375 -1.13015625 4.911875 -1.1328125 4.09375 C-1 2 -1 2 0 0 Z " fill="#1648BE" transform="translate(63,110)"/>
<path d="M0 0 C4.95 0 9.9 0 15 0 C15 0.33 15 0.66 15 1 C9.06 1.495 9.06 1.495 3 2 C3.44066226 6.81651514 3.44066226 6.81651514 5.7421875 8.546875 C6.44601563 8.94390625 7.14984375 9.3409375 7.875 9.75 C8.57367188 10.15734375 9.27234375 10.5646875 9.9921875 10.984375 C12.11453447 12.11930668 12.11453447 12.11930668 15 13 C16.1875 15.5625 16.1875 15.5625 17 18 C12.36377516 15.57456756 7.79522037 13.02494987 3.4375 10.125 C2.77621094 9.69445312 2.11492187 9.26390625 1.43359375 8.8203125 C0 7 0 7 0 0 Z " fill="#174DBA" transform="translate(110,148)"/>
<path d="M0 0 C1.24390503 -0.01933594 1.24390503 -0.01933594 2.51293945 -0.0390625 C8.52030339 -0.04896441 8.52030339 -0.04896441 11.875 2.1875 C11.20557373 2.21255615 10.53614746 2.2376123 9.84643555 2.26342773 C6.75166906 2.38097076 3.65709248 2.50296486 0.5625 2.625 C-0.49001953 2.66431641 -1.54253906 2.70363281 -2.62695312 2.74414062 C-9.48552848 3.01848364 -16.29598103 3.49430652 -23.125 4.1875 C-23.125 3.1975 -23.125 2.2075 -23.125 1.1875 C-15.41340284 0.41218682 -7.74703488 0.0590644 0 0 Z " fill="#1847B5" transform="translate(140.125,74.8125)"/>
<path d="M0 0 C3.48645691 0.65371067 6.00288024 2.06886893 9 3.9375 C13.88077026 6.96566082 17.44889967 9.16701839 23.25 9.625 C24.14203125 9.69976562 25.0340625 9.77453125 25.953125 9.8515625 C26.96632812 9.92503906 26.96632812 9.92503906 28 10 C28 9.34 28 8.68 28 8 C29.65 7.34 31.3 6.68 33 6 C32 9 32 9 30 10.6875 C25.77063319 12.53784798 22.45757095 13.00962077 18 12 C11.36539084 8.91600036 4.98081918 5.46045362 0 0 Z " fill="#1547B9" transform="translate(153,182)"/>
<path d="M0 0 C0 0.99 0 1.98 0 3 C-0.969375 3.598125 -1.93875 4.19625 -2.9375 4.8125 C-6.29339848 6.72036301 -6.29339848 6.72036301 -6.875 10.25 C-6.91625 11.1575 -6.9575 12.065 -7 13 C-7.66 13 -8.32 13 -9 13 C-9 12.34 -9 11.68 -9 11 C-10.0725 11.309375 -11.145 11.61875 -12.25 11.9375 C-14.82866222 12.66812096 -17.39512102 13.37482904 -20 14 C-17.84534217 11.70385985 -15.63869456 9.99465442 -12.98828125 8.30078125 C-12.23095703 7.81416016 -11.47363281 7.32753906 -10.69335938 6.82617188 C-9.51483398 6.0769043 -9.51483398 6.0769043 -8.3125 5.3125 C-7.51521484 4.80138672 -6.71792969 4.29027344 -5.89648438 3.76367188 C-3.93312919 2.50571376 -1.9676015 1.25130184 0 0 Z " fill="#1847BF" transform="translate(165,42)"/>
<path d="M0 0 C1.76337678 2.64506516 2.6560851 4.59213967 3.625 7.5625 C4.01558594 8.74005859 4.01558594 8.74005859 4.4140625 9.94140625 C5 12 5 12 5 14 C-4.24 14 -13.48 14 -23 14 C-23 13.67 -23 13.34 -23 13 C-14.75 13 -6.5 13 2 13 C1.34 10.69 0.68 8.38 0 6 C-0.125 2.5625 -0.125 2.5625 0 0 Z " fill="#1443AF" transform="translate(173,90)"/>
<path d="M0 0 C2.97 0 5.94 0 9 0 C9 1.65 9 3.3 9 5 C5.7 5 2.4 5 -1 5 C-0.67 3.35 -0.34 1.7 0 0 Z " fill="#1E58DC" transform="translate(175,121)"/>
<path d="M0 0 C3.125 1.6875 3.125 1.6875 5 4 C5.3125 6.75 5.3125 6.75 5 9 C3.29115995 7.37660195 1.62553283 5.70680947 0 4 C0 3.34 0 2.68 0 2 C-5.19209404 1.78807779 -9.126739 2.4087311 -14 4 C-14 3.34 -14 2.68 -14 2 C-9.44508812 -0.62985674 -5.14247722 -0.67292513 0 0 Z " fill="#194BB0" transform="translate(181,39)"/>
<path d="M0 0 C0.66 0 1.32 0 2 0 C1.67 1.32 1.34 2.64 1 4 C-0.258125 4.185625 -1.51625 4.37125 -2.8125 4.5625 C-5.34016245 5.1809706 -6.62000813 5.51178259 -8.234375 7.5859375 C-9.70453053 10.87298335 -10.1516168 12.54514961 -9 16 C-8.01 16.33 -7.02 16.66 -6 17 C-10.875 16.125 -10.875 16.125 -12 15 C-12.57435881 10.88376184 -12.13360773 9.21863084 -9.9375 5.625 C-7 3 -7 3 -3.1875 2.625 C-2.135625 2.74875 -1.08375 2.8725 0 3 C0 2.01 0 1.02 0 0 Z " fill="#1442B2" transform="translate(93,98)"/>
<path d="M0 0 C2.97 0 5.94 0 9 0 C9 1.32 9 2.64 9 4 C6.03 4 3.06 4 0 4 C0 2.68 0 1.36 0 0 Z " fill="#1F57DF" transform="translate(95,122)"/>
<path d="M0 0 C2.00993705 3.01490557 2.72623341 5.2149927 3.625 8.6875 C3.88539063 9.68136719 4.14578125 10.67523438 4.4140625 11.69921875 C4.60742188 12.45847656 4.80078125 13.21773437 5 14 C5.66 14 6.32 14 7 14 C7 15.65 7 17.3 7 19 C6.67 18.34 6.34 17.68 6 17 C5.34 17 4.68 17 4 17 C3.1344953 14.73291675 2.28240685 12.46224921 1.4375 10.1875 C1.19064453 9.54490234 0.94378906 8.90230469 0.68945312 8.24023438 C-1.11328125 3.33984375 -1.11328125 3.33984375 0 0 Z " fill="#1348C1" transform="translate(179,79)"/>
<path d="M0 0 C0.33 0.66 0.66 1.32 1 2 C0 5 0 5 -1.671875 5.84375 C-2.35765625 6.0603125 -3.0434375 6.276875 -3.75 6.5 C-6.43506422 7.40464529 -8.42081352 8.25614736 -10.875 9.75 C-11.926875 10.36875 -11.926875 10.36875 -13 11 C-13.66 10.67 -14.32 10.34 -15 10 C-10.05 6.7 -5.1 3.4 0 0 Z " fill="#1644AF" transform="translate(99,84)"/>
<path d="M0 0 C3.5875213 1.33250791 6.8364623 2.830717 10 5 C10 5.66 10 6.32 10 7 C10.99 7.33 11.98 7.66 13 8 C12.67 8.66 12.34 9.32 12 10 C9.99426318 8.71656721 7.99563881 7.4239631 6 6.125 C5.42765625 5.76019531 4.8553125 5.39539063 4.265625 5.01953125 C2.80818084 4.06525233 1.39962775 3.03722413 0 2 C0 1.34 0 0.68 0 0 Z " fill="#1547B4" transform="translate(139,172)"/>
<path d="M0 0 C0.33 0.99 0.66 1.98 1 3 C-0.98 3.66 -2.96 4.32 -5 5 C-5.66 4.34 -6.32 3.68 -7 3 C-4.49955934 -0.00052879 -4.2621484 0 0 0 Z " fill="#1856DB" transform="translate(171,124)"/>
<path d="M0 0 C3.99500618 1.3697164 6.80009492 3.25722422 10 6 C9.67 6.66 9.34 7.32 9 8 C7.49460339 7.05016642 5.99579653 6.08988109 4.5 5.125 C3.6646875 4.59132812 2.829375 4.05765625 1.96875 3.5078125 C1.3190625 3.01023438 0.669375 2.51265625 0 2 C0 1.34 0 0.68 0 0 Z " fill="#1246AF" transform="translate(128,165)"/>
<path d="M0 0 C1.32 0.99 2.64 1.98 4 3 C3 5 3 5 1.125 5.8125 C-1 6 -1 6 -2.75 4.5625 C-3.1625 4.046875 -3.575 3.53125 -4 3 C-2.68 3 -1.36 3 0 3 C0 2.01 0 1.02 0 0 Z " fill="#144AC6" transform="translate(112,126)"/>
<path d="M0 0 C0.99 0.495 0.99 0.495 2 1 C2.35919668 2.66128463 2.68911632 4.32900023 3 6 C3.99083967 8.23408113 3.99083967 8.23408113 5 10 C2.5 8.9375 2.5 8.9375 0 7 C-0.3125 3.3125 -0.3125 3.3125 0 0 Z " fill="#0F3EB7" transform="translate(111,149)"/>
<path d="M0 0 C2.475 0.99 2.475 0.99 5 2 C5 2.66 5 3.32 5 4 C2.69 4 0.38 4 -2 4 C-1.34 2.68 -0.68 1.36 0 0 Z " fill="#1156D6" transform="translate(88,97)"/>
<path d="M0 0 C2.475 0.99 2.475 0.99 5 2 C5 3.65 5 5.3 5 7 C3.29115995 5.37660195 1.62553283 3.70680947 0 2 C0 1.34 0 0.68 0 0 Z " fill="#1048BE" transform="translate(181,41)"/>
<path d="" fill="#000000" transform="translate(0,0)"/>
<path d="" fill="#000000" transform="translate(0,0)"/>
<path d="" fill="#000000" transform="translate(0,0)"/>
<path d="M0 0 C2 1 2 1 2 1 Z " fill="#000000" transform="translate(231,112)"/>
<path d="" fill="#000000" transform="translate(0,0)"/>
<path d="" fill="#000000" transform="translate(0,0)"/>
<path d="" fill="#000000" transform="translate(0,0)"/>
<path d="" fill="#000000" transform="translate(0,0)"/>
<path d="" fill="#000000" transform="translate(0,0)"/>
<path d="" fill="#000000" transform="translate(0,0)"/>
<path d="" fill="#000000" transform="translate(0,0)"/>
<path d="" fill="#000000" transform="translate(0,0)"/>
<path d="" fill="#000000" transform="translate(0,0)"/>
<path d="" fill="#000000" transform="translate(0,0)"/>
</svg>
