<?xml version="1.0" encoding="UTF-8"?>
<svg version="1.1" xmlns="http://www.w3.org/2000/svg" width="444" height="542">
<path d="M0 0 C64.68 0 129.36 0 196 0 C196.33 9.9 196.66 19.8 197 30 C200.54646541 35.97635805 200.54646541 35.97635805 206 38 C208.60202819 38.32172853 208.60202819 38.32172853 211.34106445 38.31884766 C212.3817659 38.33871735 213.42246735 38.35858704 214.4947052 38.37905884 C215.6063353 38.39061005 216.71796539 38.40216125 217.86328125 38.4140625 C219.01040085 38.43342865 220.15752045 38.4527948 221.33940125 38.4727478 C224.9970256 38.53244467 228.65468159 38.57889002 232.3125 38.625 C234.79493547 38.66318883 237.27735782 38.70224108 239.75976562 38.7421875 C245.83972712 38.83813819 251.91976789 38.92321478 258 39 C259.20479959 46.57431365 259.16391096 54.10766381 259.16796875 61.76171875 C259.17118993 63.19887829 259.17455462 64.63603752 259.17805481 66.07319641 C259.18401887 69.07802082 259.18589761 72.08281658 259.18530273 75.08764648 C259.18520147 78.90210665 259.19882932 82.71637921 259.21607494 86.5307951 C259.22730045 89.49856884 259.22921871 92.46629879 259.22869301 95.43409157 C259.22985824 96.83843441 259.23419607 98.24277895 259.24202538 99.64710045 C259.32936085 116.93442198 257.91844314 132.91434372 245.3984375 145.87109375 C236.67575577 153.61353926 226.70181251 155.71366395 215.234375 155.35546875 C200.39053875 154.39660807 188.15391828 145.78671453 176 138 C174.91332031 137.30680664 174.91332031 137.30680664 173.8046875 136.59960938 C170.34311421 134.38588788 166.89586868 132.15119757 163.45703125 129.90234375 C158.43544782 126.62217978 153.37517412 123.40375576 148.3125 120.1875 C147.3836499 119.59710938 146.4547998 119.00671875 145.49780273 118.3984375 C143.60446499 117.1952619 141.71099107 115.99230059 139.81738281 114.78955078 C126.30385028 106.20599848 112.80514649 97.59972948 99.32373047 88.96582031 C89.79470036 82.86476405 80.25031629 76.78805239 70.70166016 70.71777344 C65.21554717 67.22958521 59.73109525 63.73878439 54.24707031 60.24731445 C49.67892237 57.33931612 45.10900114 54.43418721 40.53515625 51.53515625 C30.71649875 45.30760207 20.93049147 39.03291991 11.1875 32.6875 C10.18404541 32.03467041 9.18059082 31.38184082 8.14672852 30.70922852 C7.22561279 30.10780029 6.30449707 29.50637207 5.35546875 28.88671875 C4.53715576 28.35264404 3.71884277 27.81856934 2.87573242 27.26831055 C1 26 1 26 0 25 C0 16.75 0 8.5 0 0 Z " fill="#1E57D9" transform="translate(176,378)"/>
<path d="M0 0 C3.26796007 0.00008115 6.53577962 -0.00686045 9.80371094 -0.02050781 C84.15187663 -0.32575966 84.15187663 -0.32575966 98.2277832 10.18530273 C100.33278248 12.64304763 101.75637201 15.31336327 103.2277832 18.18530273 C103.7026416 19.06412109 104.1775 19.94293945 104.66674805 20.84838867 C133.2277832 74.42407768 133.2277832 74.42407768 133.2277832 94.18530273 C122.68947284 95.5325953 112.19427507 96.57342828 101.5847168 97.13574219 C99.51872119 97.24562538 97.45337248 97.36418501 95.38793945 97.48413086 C90.66932147 97.75085757 85.94919459 97.97429675 81.2277832 98.18530273 C80.24260712 98.2298056 79.25743103 98.27430847 78.24240112 98.32015991 C57.0023804 99.24586086 35.77793324 99.38493491 14.52110672 99.37418365 C11.75323674 99.372784 8.98536907 99.37288775 6.21749878 99.37298584 C-94.09800355 99.3465803 -94.09800355 99.3465803 -120.7722168 94.18530273 C-116.81939312 74.08947885 -109.43065804 55.00738618 -100.82543945 36.47436523 C-99.6543289 33.92908649 -98.51403069 31.37128547 -97.37768555 28.81030273 C-96.97485352 27.90449463 -96.57202148 26.99868652 -96.15698242 26.06542969 C-95.37961958 24.31715587 -94.60350474 22.5683264 -93.82885742 20.81884766 C-92.83336151 18.59591974 -91.80789326 16.38971321 -90.7722168 14.18530273 C-90.35584961 13.25331055 -89.93948242 12.32131836 -89.51049805 11.36108398 C-84.96693641 5.67397425 -77.69468485 4.45760942 -70.8347168 3.49780273 C-69.71419922 3.3228125 -69.71419922 3.3228125 -68.57104492 3.14428711 C-45.87260114 -0.32217066 -22.90135419 -0.0029756 0 0 Z " fill="#1E57D8" transform="translate(267.772216796875,134.814697265625)"/>
<path d="M0 0 C7.90557722 6.8051672 13.03306675 16.60406557 15.0625 26.8125 C15.15322799 29.23665074 15.18445329 31.66320292 15.18275452 34.08905029 C15.18403615 35.19061065 15.18403615 35.19061065 15.18534368 36.31442475 C15.18699109 38.77572203 15.18148919 41.23695119 15.17602539 43.69824219 C15.17574333 45.46235655 15.17590162 47.22647103 15.1764679 48.99058533 C15.17675515 53.78152824 15.17087004 58.57244619 15.16389394 63.36338329 C15.15764843 68.36955324 15.15705565 73.37572373 15.15586853 78.38189697 C15.15275876 87.86262374 15.14455012 97.34333899 15.13451904 106.82406068 C15.12334694 117.61717506 15.11784468 128.41028999 15.11282361 139.20340872 C15.10236723 161.40644557 15.0847746 183.60947206 15.0625 205.8125 C13.4125 205.8125 11.7625 205.8125 10.0625 205.8125 C9.8533345 205.23432022 9.64416901 204.65614044 9.42866516 204.06044006 C-2.75864242 170.2433225 -2.75864242 170.2433225 -15.45547485 136.61569214 C-15.97881483 135.26328997 -16.49794883 133.90925152 -17.01254272 132.55349731 C-19.58523704 125.79242389 -22.11330009 119.82177314 -26.82495117 114.27441406 C-27.9375 112.8125 -27.9375 112.8125 -27.9375 110.8125 C-28.576875 110.585625 -29.21625 110.35875 -29.875 110.125 C-32.35973748 109.06011251 -34.49513431 107.92488323 -36.8125 106.5625 C-68.0032799 89.11419243 -106.44755839 89.61986605 -141.19262695 89.68212891 C-144.73327954 89.68747475 -148.27380444 89.68216036 -151.81445312 89.67578125 C-165.22021132 89.67227308 -178.55737288 89.97367447 -191.9375 90.8125 C-189.1951644 88.58546921 -186.47690939 86.41786941 -183.50390625 84.5078125 C-182.86710938 84.09700439 -182.2303125 83.68619629 -181.57421875 83.26293945 C-180.88972656 82.82554443 -180.20523438 82.38814941 -179.5 81.9375 C-178.76265625 81.4633667 -178.0253125 80.9892334 -177.265625 80.50073242 C-169.46050356 75.48904841 -161.62938368 70.51785441 -153.80078125 65.54296875 C-144.55664831 59.66570851 -135.33529782 53.75279586 -126.11083984 47.84472656 C-119.85038111 43.83548987 -113.5883687 39.82868013 -107.32641602 35.82177734 C-100.96778048 31.75276882 -94.61096159 27.68094072 -88.25537109 23.60717773 C-85.11475595 21.5959641 -81.97163685 19.58871346 -78.828125 17.58203125 C-75.09825452 15.20027023 -71.37978763 12.80250137 -67.671875 10.38671875 C-47.44965421 -2.71820641 -22.81430916 -16.45998815 0 0 Z " fill="#1E57D9" transform="translate(418.9375,18.1875)"/>
<path d="M0 0 C1 2 1 2 0.54647827 3.86813354 C0.2751004 4.62691803 0.00372253 5.38570251 -0.27587891 6.16748047 C-0.73228256 7.46055618 -0.73228256 7.46055618 -1.19790649 8.77975464 C-1.70709122 10.18428391 -1.70709122 10.18428391 -2.2265625 11.6171875 C-2.5712558 12.58471954 -2.9159491 13.55225159 -3.27108765 14.54910278 C-4.00577192 16.60660332 -4.74413719 18.66279251 -5.48583984 20.71777344 C-6.60681879 23.82461008 -7.71654061 26.93527489 -8.82421875 30.046875 C-12.31104509 39.80208692 -15.81684444 49.51698821 -20 59 C-20.56396484 59.00410889 -21.12792969 59.00821777 -21.70898438 59.01245117 C-24.30699703 59.04569765 -26.90275923 59.1163677 -29.5 59.1875 C-30.386875 59.19330078 -31.27375 59.19910156 -32.1875 59.20507812 C-38.58626633 59.41680201 -43.0873013 60.791193 -48 65 C-53.89736442 72.04714719 -57.45030232 81.83956431 -57 91 C-56.56058477 93.26566343 -56.56058477 93.26566343 -56 95 C-51.04009131 95.94285804 -46.1542194 96.30223376 -41.125 96.5625 C-38.41662938 96.7076442 -35.70832135 96.85393806 -33 97 C-33.42252045 98.41599487 -33.42252045 98.41599487 -33.85357666 99.8605957 C-36.84194797 110.42043525 -37.60369088 120.25620708 -37.609375 131.1875 C-37.62440287 132.86858678 -37.64113941 134.54965905 -37.65948486 136.23071289 C-37.70265479 140.59693178 -37.72304377 144.96295181 -37.73822021 149.3293457 C-37.75797575 153.80822268 -37.79992307 158.2868904 -37.83984375 162.765625 C-37.9145983 171.51036108 -37.96521837 180.25501385 -38 189 C-41.42764019 187.66478198 -44.43273285 186.22902449 -47.52734375 184.234375 C-48.82236816 183.40462158 -48.82236816 183.40462158 -50.14355469 182.55810547 C-51.06555664 181.96143066 -51.98755859 181.36475586 -52.9375 180.75 C-54.92045366 179.47637681 -56.90353006 178.20294469 -58.88671875 176.9296875 C-59.90040527 176.27709961 -60.9140918 175.62451172 -61.95849609 174.95214844 C-65.79297122 172.49104207 -69.64332831 170.05554684 -73.49414062 167.62011719 C-81.35094449 162.64488384 -89.17761251 157.62527792 -96.9375 152.5 C-97.65260742 152.03190918 -98.36771484 151.56381836 -99.10449219 151.08154297 C-111.22134532 143.01808634 -121.47306482 132.18513583 -125.25 117.75 C-127.64965726 105.01000148 -125.48669797 93.37883708 -118.8125 82.25 C-111.49720684 71.6374573 -102.36491512 65.30623944 -91.59765625 58.62207031 C-87.76103953 56.22634837 -83.95790971 53.77920179 -80.15161133 51.33569336 C-76.9511717 49.28115442 -73.74750679 47.23173353 -70.54296875 45.18359375 C-66.23191842 42.42758021 -61.92196936 39.66986139 -57.61328125 36.91015625 C-47.58502697 30.48754902 -37.55118066 24.07417854 -27.5 17.6875 C-18.30064873 11.84174174 -9.13921234 5.93927592 0 0 Z " fill="#1E57D8" transform="translate(138,165)"/>
<path d="M0 0 C4.80049056 1.98434031 9.47602504 3.5743518 14.50341797 4.87304688 C20.55521787 6.64658207 24.03332098 9.40186468 27.19091797 14.87304688 C28.80074469 18.54588682 29.4745218 21.62519001 28.56591797 25.62304688 C25.63509445 30.41893991 23.13809483 32.2220542 17.58154297 33.57617188 C9.56996074 34.57107424 5.92606641 33.77163485 -0.43408203 28.93554688 C-4.87755289 25.62570741 -8.09813785 23.26909016 -13.80908203 22.87304688 C-14.55029297 22.81761719 -15.29150391 22.7621875 -16.05517578 22.70507812 C-22.56865353 22.64702574 -28.86721596 23.46757751 -35.29345703 24.43554688 C-43.51808569 25.45905622 -43.51808569 25.45905622 -47.64892578 23.58398438 C-51.09638299 19.25751909 -50.49500675 14.8620185 -50.37158203 9.49804688 C-50.38253906 8.469375 -50.39349609 7.44070313 -50.40478516 6.38085938 C-50.34768404 0.47279671 -50.06606565 -3.64361189 -45.80908203 -8.12695312 C-32.23466078 -15.58423868 -12.83152545 -5.33728782 0 0 Z " fill="#1E57D9" transform="translate(168.80908203125,288.126953125)"/>
<path d="M0 0 C3.5916941 2.51418587 5.12009886 4.61029657 6.5 8.75 C6.8022451 12.03643723 6.8233843 15.32628782 6.875 18.625 C6.93107422 19.97271484 6.93107422 19.97271484 6.98828125 21.34765625 C7.0472825 25.78586146 6.92239939 28.10355226 4.4453125 31.89453125 C0.74024875 34.22862313 -1.83269911 34.10068886 -6 33.5625 C-7.51656826 33.43195995 -9.03352383 33.30586358 -10.55078125 33.18359375 C-11.35209473 33.11253418 -12.1534082 33.04147461 -12.97900391 32.96826172 C-30.3979934 31.26899127 -30.3979934 31.26899127 -45.66333008 38.52197266 C-50.65143117 42.24188706 -54.4761013 42.72272027 -60.578125 42.25390625 C-65.76280142 41.35975751 -71.25978971 40.25946464 -74.5 35.75 C-74.30324663 27.85363148 -65.86377897 20.83543274 -60.5 15.6875 C-57.28447575 12.64317264 -54.14089244 12.17003496 -49.93505859 11.33325195 C-45.84805687 10.35432202 -42.13434148 8.59228924 -38.3125 6.875 C-12.284735 -4.38740536 -12.284735 -4.38740536 0 0 Z " fill="#1E57D9" transform="translate(423.5,279.25)"/>
<path d="M0 0 C64.68 0 129.36 0 196 0 C196.33 9.9 196.66 19.8 197 30 C200.54646541 35.97635805 200.54646541 35.97635805 206 38 C208.60202819 38.32172853 208.60202819 38.32172853 211.34106445 38.31884766 C212.3817659 38.33871735 213.42246735 38.35858704 214.4947052 38.37905884 C215.6063353 38.39061005 216.71796539 38.40216125 217.86328125 38.4140625 C219.01040085 38.43342865 220.15752045 38.4527948 221.33940125 38.4727478 C224.9970256 38.53244467 228.65468159 38.57889002 232.3125 38.625 C234.79493547 38.66318883 237.27735782 38.70224108 239.75976562 38.7421875 C245.83972712 38.83813819 251.91976789 38.92321478 258 39 C259.20479959 46.57431365 259.16391096 54.10766381 259.16796875 61.76171875 C259.17118993 63.19887829 259.17455462 64.63603752 259.17805481 66.07319641 C259.18401887 69.07802082 259.18589761 72.08281658 259.18530273 75.08764648 C259.18520147 78.90210665 259.19882932 82.71637921 259.21607494 86.5307951 C259.22730045 89.49856884 259.22921871 92.46629879 259.22869301 95.43409157 C259.22985824 96.83843441 259.23419607 98.24277895 259.24202538 99.64710045 C259.32936085 116.93442198 257.91844314 132.91434372 245.3984375 145.87109375 C236.67933067 153.6103661 226.72200217 155.6945432 215.26171875 155.37109375 C203.1221303 154.59669549 192.83845077 148.68616469 183 142 C183.33 141.34 183.66 140.68 184 140 C184.58007812 140.33773437 185.16015625 140.67546875 185.7578125 141.0234375 C190.09001059 143.49693674 194.16670766 145.6367637 199 147 C199 147.66 199 148.32 199 149 C207.20202677 151.5659972 214.4432576 152.26861173 222.9453125 152.0078125 C226 152 226 152 228 153 C228.33 152.01 228.66 151.02 229 150 C229.825 150.103125 230.65 150.20625 231.5 150.3125 C237.90089493 149.74099152 242.79813554 145.6966948 247 141 C250.98033957 134.47485316 253.44725647 128.60022347 254 121 C254.99 119.515 254.99 119.515 256 118 C256.21240544 115.49514053 256.31121316 113.09758154 256.31884766 110.59106445 C256.32889328 109.83960144 256.3389389 109.08813843 256.34928894 108.31390381 C256.38017657 105.83037073 256.39717139 103.34694572 256.4140625 100.86328125 C256.43276968 99.14120042 256.45234275 97.4191288 256.4727478 95.69706726 C256.52412263 91.16467716 256.56371966 86.63225732 256.60089111 82.09973145 C256.64089726 77.4746156 256.69200504 72.84962402 256.7421875 68.22460938 C256.83901011 59.14982681 256.92339459 50.07497417 257 41 C256.39136108 41.02363113 255.78272217 41.04726227 255.15563965 41.0716095 C248.79693417 41.31331056 242.43778525 41.51810383 236.07714844 41.7019043 C233.70639697 41.77520149 231.33591278 41.85777363 228.96582031 41.94995117 C225.55041788 42.08114736 222.1354303 42.17848848 218.71875 42.26953125 C217.14015198 42.34105156 217.14015198 42.34105156 215.52966309 42.41401672 C208.69615323 42.55334906 204.2549646 41.49033693 199 37 C195.02251389 32.6145666 193.87115848 30.26273195 193.9375 24.40625 C193.94523438 23.29378906 193.95296875 22.18132812 193.9609375 21.03515625 C193.98697917 18.67838542 194.01302083 16.32161458 194.0390625 13.96484375 C194.04679688 12.85238281 194.05453125 11.73992187 194.0625 10.59375 C194.07990234 9.05750977 194.07990234 9.05750977 194.09765625 7.49023438 C194.17115018 4.9991158 194.17115018 4.9991158 193 3 C130.3 3 67.6 3 3 3 C2.67 10.26 2.34 17.52 2 25 C3.98 25.66 5.96 26.32 8 27 C8 27.66 8 28.32 8 29 C8.5775 29.12375 9.155 29.2475 9.75 29.375 C12.02335767 30.00648824 13.9253529 30.88858191 16 32 C16 32.66 16 33.32 16 34 C16.57363281 34.10828125 17.14726562 34.2165625 17.73828125 34.328125 C20.30933984 35.0918937 22.00035502 36.20425819 24.1875 37.75 C28.63913014 40.81142006 33.23765639 43.45558001 38 46 C38 46.66 38 47.32 38 48 C38.9075 48.0825 39.815 48.165 40.75 48.25 C44.54517398 49.12580938 45.38104623 50.22232176 48 53 C50.27907018 54.45840716 52.61470146 55.71560848 55 57 C55 57.66 55 58.32 55 59 C55.99 59.33 56.98 59.66 58 60 C57.505 60.99 57.505 60.99 57 62 C55.65364583 61.14322917 54.30729167 60.28645833 52.9609375 59.4296875 C52.08099121 58.86975098 51.20104492 58.30981445 50.29443359 57.73291016 C48.32590218 56.48014849 46.35748008 55.22721503 44.38916016 53.97412109 C39.28277816 50.72357385 34.17481578 47.4755832 29.0625 44.234375 C2.18358286 27.18358286 2.18358286 27.18358286 0 25 C0 16.75 0 8.5 0 0 Z " fill="#1941BC" transform="translate(176,378)"/>
<path d="M0 0 C7.90557722 6.8051672 13.03306675 16.60406557 15.0625 26.8125 C15.15322799 29.23665074 15.18445329 31.66320292 15.18275452 34.08905029 C15.18360894 34.82342386 15.18446337 35.55779744 15.18534368 36.31442475 C15.18699109 38.77572203 15.18148919 41.23695119 15.17602539 43.69824219 C15.17574333 45.46235655 15.17590162 47.22647103 15.1764679 48.99058533 C15.17675515 53.78152824 15.17087004 58.57244619 15.16389394 63.36338329 C15.15764843 68.36955324 15.15705565 73.37572373 15.15586853 78.38189697 C15.15275876 87.86262374 15.14455012 97.34333899 15.13451904 106.82406068 C15.12334694 117.61717506 15.11784468 128.41028999 15.11282361 139.20340872 C15.10236723 161.40644557 15.0847746 183.60947206 15.0625 205.8125 C13.4125 205.8125 11.7625 205.8125 10.0625 205.8125 C9.05850476 203.18896482 8.05915555 200.56382205 7.0625 197.9375 C6.77632813 197.19113281 6.49015625 196.44476563 6.1953125 195.67578125 C4.0625 190.0390625 4.0625 190.0390625 4.0625 187.8125 C4.7225 187.8125 5.3825 187.8125 6.0625 187.8125 C8.52196923 193.06682063 9.96551833 198.12110098 11.0625 203.8125 C11.7225 203.8125 12.3825 203.8125 13.0625 203.8125 C13.08591474 182.80173195 13.10352117 161.79096608 13.11431217 140.78018761 C13.11945696 131.02337583 13.12646486 121.26657218 13.13793945 111.50976562 C13.147942 103.00054723 13.15436663 94.49133473 13.15658849 85.98211062 C13.15788618 81.48128506 13.16091189 76.98047635 13.16823006 72.47965622 C13.17507837 68.23291222 13.17709925 63.98619182 13.17560768 59.73944283 C13.17588008 58.19081684 13.17783246 56.64218997 13.18170547 55.0935688 C14.08336173 36.83992104 14.08336173 36.83992104 9.0625 19.8125 C8.4025 19.4825 7.7425 19.1525 7.0625 18.8125 C6.9078125 16.894375 6.9078125 16.894375 6.75 14.9375 C6.60064482 12.76883836 6.60064482 12.76883836 6.0625 10.8125 C3.63577433 9.02280974 3.63577433 9.02280974 1.0625 7.8125 C0.5 5.875 0.5 5.875 0.0625 3.8125 C-4.4156296 -1.55071874 -10.29647634 -2.82251857 -16.9375 -4.1875 C-24.97011092 -4.78645873 -31.76021006 -4.3374263 -39.3125 -1.6875 C-42.83711764 -0.49320807 -46.23433716 0.33773553 -49.9375 0.8125 C-46.94750375 -1.64984985 -44.14610977 -3.0280175 -40.5 -4.3125 C-39.10974609 -4.81136719 -39.10974609 -4.81136719 -37.69140625 -5.3203125 C-24.98996209 -9.31991619 -10.94132627 -7.89390989 0 0 Z " fill="#1049BC" transform="translate(418.9375,18.1875)"/>
<path d="M0 0 C64.02 0 128.04 0 194 0 C193.67 1.32 193.34 2.64 193 4 C192.67 3.34 192.34 2.68 192 2 C129.3 2 66.6 2 2 2 C1.67 9.26 1.34 16.52 1 24 C2.98 24.66 4.96 25.32 7 26 C7 26.66 7 27.32 7 28 C7.5775 28.12375 8.155 28.2475 8.75 28.375 C11.02335767 29.00648824 12.9253529 29.88858191 15 31 C15 31.66 15 32.32 15 33 C15.57363281 33.10828125 16.14726562 33.2165625 16.73828125 33.328125 C19.30933984 34.0918937 21.00035502 35.20425819 23.1875 36.75 C27.63913014 39.81142006 32.23765639 42.45558001 37 45 C37 45.66 37 46.32 37 47 C37.9075 47.0825 38.815 47.165 39.75 47.25 C43.54517398 48.12580938 44.38104623 49.22232176 47 52 C49.27907018 53.45840716 51.61470146 54.71560848 54 56 C54 56.66 54 57.32 54 58 C54.99 58.33 55.98 58.66 57 59 C56.505 59.99 56.505 59.99 56 61 C54.65364583 60.14322917 53.30729167 59.28645833 51.9609375 58.4296875 C51.08099121 57.86975098 50.20104492 57.30981445 49.29443359 56.73291016 C47.32590218 55.48014849 45.35748008 54.22721503 43.38916016 52.97412109 C37.32662938 49.11492241 31.26282289 45.25782074 25.18847656 41.41723633 C23.31821465 40.22584508 21.45546432 39.02257628 19.60058594 37.80737305 C15.80067939 35.32662837 12.1565705 32.9563108 7.953125 31.22265625 C4.625 29.6875 4.625 29.6875 0 25 C0 16.75 0 8.5 0 0 Z " fill="#0743C5" transform="translate(177,379)"/>
<path d="M0 0 C0.495 0.99 0.495 0.99 1 2 C-4.75 6 -4.75 6 -7 6 C-7.33 6.99 -7.66 7.98 -8 9 C-9.65984798 9.68346682 -11.32836805 10.34588315 -13 11 C-14.83272907 12.27004909 -16.59591276 13.60223035 -18.3515625 14.9765625 C-20 16 -20 16 -23 16 C-23 16.66 -23 17.32 -23 18 C-23.99 18.33 -24.98 18.66 -26 19 C-26.33 19.66 -26.66 20.32 -27 21 C-29.5625 21.625 -29.5625 21.625 -32 22 C-32 22.99 -32 23.98 -32 25 C-31.34 25 -30.68 25 -30 25 C-30.99 27.475 -30.99 27.475 -32 30 C-26.50123841 30.90731181 -21.13408726 31.2054771 -15.56640625 31.31640625 C-14.68846909 31.33718735 -13.81053192 31.35796844 -12.9059906 31.37937927 C-10.12490015 31.44431945 -7.34372215 31.50349927 -4.5625 31.5625 C-2.66730896 31.60573814 -0.7721265 31.64935405 1.12304688 31.69335938 C5.74861013 31.79994322 10.37426071 31.90136408 15 32 C15.33 32.66 15.66 33.32 16 34 C15.40548035 34.01030746 14.81096069 34.02061493 14.19842529 34.03123474 C7.90190372 34.14104559 1.60547668 34.25545712 -4.69091797 34.37231445 C-7.02781153 34.41511529 -9.36472553 34.45681728 -11.70166016 34.49731445 C-26.15264 34.74860886 -40.57032566 35.16404716 -55 36 C-52.2576644 33.77296921 -49.53940939 31.60536941 -46.56640625 29.6953125 C-45.92848145 29.2837793 -45.29055664 28.87224609 -44.63330078 28.44824219 C-43.94993652 28.01157227 -43.26657227 27.57490234 -42.5625 27.125 C-41.83530762 26.65739258 -41.10811523 26.18978516 -40.35888672 25.70800781 C-37.90849109 24.13462289 -35.45476665 22.56655621 -33 21 C-32.08750488 20.41766602 -31.17500977 19.83533203 -30.23486328 19.23535156 C-24.72568603 15.72206191 -19.21217589 12.21563458 -13.69628906 8.71289062 C-9.12905429 5.81143108 -4.56458172 2.90563093 0 0 Z " fill="#184DC1" transform="translate(282,73)"/>
<path d="M0 0 C1 2 1 2 0.47094727 3.97119141 C0.17244873 4.75671387 -0.1260498 5.54223633 -0.43359375 6.3515625 C-0.75263672 7.20234375 -1.07167969 8.053125 -1.40039062 8.9296875 C-1.74263672 9.81914062 -2.08488281 10.70859375 -2.4375 11.625 C-2.94506836 12.97078125 -2.94506836 12.97078125 -3.46289062 14.34375 C-4.30182988 16.56516661 -5.1477775 18.78365271 -6 21 C-6.33 21 -6.66 21 -7 21 C-6.19512195 12.95121951 -6.19512195 12.95121951 -4 9 C-4 8.01 -4 7.02 -4 6 C-4.62648438 6.3609375 -5.25296875 6.721875 -5.8984375 7.09375 C-6.71570313 7.5578125 -7.53296875 8.021875 -8.375 8.5 C-9.18710938 8.9640625 -9.99921875 9.428125 -10.8359375 9.90625 C-13 11 -13 11 -15 11 C-15 11.66 -15 12.32 -15 13 C-17.08203125 14.47265625 -17.08203125 14.47265625 -19.8125 16.0625 C-20.70582031 16.58972656 -21.59914063 17.11695313 -22.51953125 17.66015625 C-25 19 -25 19 -28 20 C-28 20.66 -28 21.32 -28 22 C-29.28913487 22.67154933 -30.58140204 23.33708859 -31.875 24 C-32.59429687 24.37125 -33.31359375 24.7425 -34.0546875 25.125 C-36 26 -36 26 -38 26 C-38 26.66 -38 27.32 -38 28 C-38.99 28 -39.98 28 -41 28 C-41 28.66 -41 29.32 -41 30 C-47.75 34 -47.75 34 -50 34 C-50 34.66 -50 35.32 -50 36 C-51.28913487 36.67154933 -52.58140204 37.33708859 -53.875 38 C-54.59429687 38.37125 -55.31359375 38.7425 -56.0546875 39.125 C-58 40 -58 40 -60 40 C-60 40.66 -60 41.32 -60 42 C-61.155 42.53625 -62.31 43.0725 -63.5 43.625 C-67.40337278 45.56289355 -70.68369388 47.93390329 -74.10546875 50.61328125 C-76.57444889 52.4204729 -79.25651301 53.66171366 -82 55 C-82.33 55.66 -82.66 56.32 -83 57 C-84.63618674 57.970025 -86.31010847 58.87688937 -88 59.75 C-92.64085558 62.19732619 -96.89692868 64.89498997 -101.125 67.99609375 C-101.74375 68.32738281 -102.3625 68.65867187 -103 69 C-103.99 68.67 -104.98 68.34 -106 68 C-93.12458091 59.64071828 -80.20095359 51.35785176 -67.26708984 43.08935547 C-64.0483291 41.03090722 -60.83060713 38.97084631 -57.61328125 36.91015625 C-47.58502697 30.48754902 -37.55118066 24.07417854 -27.5 17.6875 C-18.30064873 11.84174174 -9.13921234 5.93927592 0 0 Z " fill="#1845AD" transform="translate(138,165)"/>
<path d="M0 0 C0.33 0 0.66 0 1 0 C0.67 26.73 0.34 53.46 0 81 C-5 79 -5 79 -7 77 C-5.68 77 -4.36 77 -3 77 C-2.99191315 76.12383026 -2.98382629 75.24766052 -2.97549438 74.34494019 C-2.89746034 66.07621114 -2.81014306 57.80764296 -2.71247292 49.53912163 C-2.66258861 45.28848389 -2.61625804 41.03787006 -2.578125 36.78710938 C-2.54117261 32.68267527 -2.49478597 28.57844506 -2.44193649 24.47418594 C-2.42344533 22.91059074 -2.408318 21.34695191 -2.39665604 19.78329086 C-2.37970277 17.58822633 -2.35064707 15.39362337 -2.31884766 13.19873047 C-2.30552399 11.95074677 -2.29220032 10.70276306 -2.2784729 9.41696167 C-1.99812956 5.977049 -1.23395784 3.21067262 0 0 Z " fill="#0E3FB5" transform="translate(100,273)"/>
<path d="M0 0 C0 0.66 0 1.32 0 2 C-4.2837641 4.57025846 -8.1725201 6.58707905 -13 8 C-13 8.66 -13 9.32 -13 10 C-15.32848089 11.52534977 -17.6480213 12.93572374 -20.0625 14.3125 C-24.69470584 16.98090513 -29.1244521 19.74695277 -33.44360352 22.8996582 C-35.36063286 24.25496036 -37.3525022 25.36149924 -39.4375 26.4375 C-42.40053546 28.03833459 -45.04685709 29.72481223 -47.6875 31.8125 C-51.21816983 34.56092562 -54.97432318 36.76479336 -58.875 38.9375 C-65.51645933 42.63997866 -71.72750034 46.78175351 -77.8046875 51.359375 C-79.375 52.5 -79.375 52.5 -82 54 C-84.1640625 53.59375 -84.1640625 53.59375 -86 53 C-84.93265625 52.35675781 -83.8653125 51.71351562 -82.765625 51.05078125 C-73.72944187 45.58056599 -64.80119075 39.9730129 -55.96020508 34.19287109 C-41.41319991 24.68398845 -26.74897462 15.35423285 -12.0625 6.0625 C-11.269646 5.56032959 -10.47679199 5.05815918 -9.65991211 4.54077148 C-8.93811768 4.08516846 -8.21632324 3.62956543 -7.47265625 3.16015625 C-6.84625244 2.76449463 -6.21984863 2.36883301 -5.57446289 1.96118164 C-2.36195072 0 -2.36195072 0 0 0 Z " fill="#1844AF" transform="translate(369,19)"/>
<path d="M0 0 C0.66 0 1.32 0 2 0 C0.75051278 8.1862956 -4.60711008 14.33356899 -10.84765625 19.49609375 C-20.28780823 26.0922072 -30.76634155 27.13301937 -42 26 C-52.48373838 24.08317801 -61.32043383 18.89859219 -70 13 C-69.67 12.34 -69.34 11.68 -69 11 C-68.12988281 11.50660156 -68.12988281 11.50660156 -67.2421875 12.0234375 C-62.90998941 14.49693674 -58.83329234 16.6367637 -54 18 C-54 18.66 -54 19.32 -54 20 C-45.79797323 22.5659972 -38.5567424 23.26861173 -30.0546875 23.0078125 C-27 23 -27 23 -25 24 C-24.505 22.515 -24.505 22.515 -24 21 C-23.175 21.103125 -22.35 21.20625 -21.5 21.3125 C-15.1244881 20.74325787 -10.16232147 16.70955896 -6 12 C-4.84526555 9.95537846 -3.76312962 7.86836193 -2.75 5.75 C-2.22921875 4.67234375 -1.7084375 3.5946875 -1.171875 2.484375 C-0.78515625 1.66453125 -0.3984375 0.8446875 0 0 Z " fill="#1846B1" transform="translate(429,507)"/>
<path d="M0 0 C4.6499119 5.13093727 4.21310791 10.45165489 4.25 17 C4.270625 17.91523438 4.29125 18.83046875 4.3125 19.7734375 C4.32023437 21.09214844 4.32023437 21.09214844 4.328125 22.4375 C4.34214355 23.64212891 4.34214355 23.64212891 4.35644531 24.87109375 C3.91976928 27.47918624 3.00969432 28.34979556 1 30 C0.01 29.505 0.01 29.505 -1 29 C-0.34 28.34 0.32 27.68 1 27 C1.45070231 23.77096837 1.32403283 20.5068715 1.3125 17.25 C1.32861328 16.35539062 1.34472656 15.46078125 1.36132812 14.5390625 C1.36512996 9.38376787 1.23988707 5.25871948 -2 1 C-4.88513285 -0.18671388 -4.88513285 -0.18671388 -8.125 -0.4375 C-9.73761719 -0.65212891 -9.73761719 -0.65212891 -11.3828125 -0.87109375 C-12.24648438 -0.91363281 -13.11015625 -0.95617187 -14 -1 C-14.33 -0.67 -14.66 -0.34 -15 0 C-16.34972356 0.2540296 -17.70533916 0.47678888 -19.0625 0.6875 C-24.8503042 1.76117962 -30.12775002 3.82960488 -35.55297852 6.05541992 C-40.6882693 8.10391023 -40.6882693 8.10391023 -44 7 C-41.47093582 5.31395721 -39.5290921 4.34362917 -36.7265625 3.30859375 C-35.9015625 3.00373047 -35.0765625 2.69886719 -34.2265625 2.38476562 C-33.36804688 2.07216797 -32.50953125 1.75957031 -31.625 1.4375 C-30.77421875 1.12103516 -29.9234375 0.80457031 -29.046875 0.47851562 C-19.88957703 -2.88058667 -8.67734778 -6.07414345 0 0 Z " fill="#1844B0" transform="translate(426,281)"/>
<path d="M0 0 C3.41827237 0.60649821 6.50191767 1.47184073 9.73046875 2.7421875 C10.61669922 3.08636719 11.50292969 3.43054688 12.41601562 3.78515625 C13.33060547 4.14480469 14.24519531 4.50445312 15.1875 4.875 C20.55828174 6.98619282 25.85659541 8.99941907 31.42578125 10.52734375 C37.12500637 12.1899224 39.9071118 14.97965973 43 20 C44.62331007 23.66423517 45.28228887 26.75792898 44.375 30.75 C42.76538789 33.38391073 41.47588028 35.12636087 39 37 C35.25 37.75 35.25 37.75 32 38 C34 35 34 35 37.125 34.3125 C38.548125 34.1578125 38.548125 34.1578125 40 34 C41.69647328 28.91058017 41.84271403 24.06923094 39.5625 19.1875 C37.26061452 15.66323396 34.80480903 14.86537377 30.83984375 13.81640625 C26.52896269 12.57710207 22.45242883 10.79441737 18.31713867 9.06811523 C14.89810934 7.66781337 11.65450783 6.57188863 8 6 C8 5.34 8 4.68 8 4 C5.36 3.34 2.72 2.68 0 2 C0 1.34 0 0.68 0 0 Z " fill="#1646B0" transform="translate(153,283)"/>
<path d="M0 0 C0 3 0 3 -1.2421875 4.39453125 C-1.78101562 4.86246094 -2.31984375 5.33039063 -2.875 5.8125 C-5.83602175 8.59893321 -7.04461089 10.98736573 -8 15 C-8.66 15 -9.32 15 -10 15 C-16.67209175 27.83094568 -17.65954473 39.8257487 -14.1328125 53.8984375 C-12.30511551 58.90254582 -9.3670325 62.91343726 -6 67 C-6.495 67.99 -6.495 67.99 -7 69 C-16.07218194 57.62953197 -20.43511519 46.7689702 -19 32 C-16.37648475 18.85100439 -9.83362708 8.91411909 0 0 Z " fill="#1743B0" transform="translate(31,234)"/>
<path d="M0 0 C5.89382702 5.04875623 10.1243496 11.25371345 12.0625 18.8125 C11.4025 18.8125 10.7425 18.8125 10.0625 18.8125 C9.74796875 18.18601562 9.4334375 17.55953125 9.109375 16.9140625 C8.68140625 16.09679687 8.2534375 15.27953125 7.8125 14.4375 C7.39484375 13.62539063 6.9771875 12.81328125 6.546875 11.9765625 C4.90360871 9.58085322 3.66298879 8.97070089 1.0625 7.8125 C0.70837656 6.48453709 0.37728446 5.15033393 0.0625 3.8125 C-4.41689604 -1.55015723 -10.2955131 -2.82232058 -16.9375 -4.1875 C-24.97011092 -4.78645873 -31.76021006 -4.3374263 -39.3125 -1.6875 C-42.83711764 -0.49320807 -46.23433716 0.33773553 -49.9375 0.8125 C-46.94750375 -1.64984985 -44.14610977 -3.0280175 -40.5 -4.3125 C-39.10974609 -4.81136719 -39.10974609 -4.81136719 -37.69140625 -5.3203125 C-24.98996209 -9.31991619 -10.94132627 -7.89390989 0 0 Z " fill="#1845B2" transform="translate(418.9375,18.1875)"/>
<path d="M0 0 C0.33 0 0.66 0 1 0 C0.37455032 5.80886391 -1.15734708 11.03019536 -3 16.5625 C-4.70064688 21.69251736 -6.30185752 26.6155761 -7 32 C-1.11021072 35.53387357 6.24627228 35.21274431 12.9375 35.5625 C14.10635742 35.62727539 14.10635742 35.62727539 15.29882812 35.69335938 C17.19907117 35.79828077 19.09951669 35.8995245 21 36 C21 36.66 21 37.32 21 38 C10.23354159 38.39389482 -0.31427866 37.18260948 -11 36 C-8.42765135 23.52171244 -4.63515779 11.86131669 0 0 Z " fill="#184AB2" transform="translate(158,193)"/>
<path d="M0 0 C0.495 0.99 0.495 0.99 1 2 C-4.75 6 -4.75 6 -7 6 C-7.33 6.99 -7.66 7.98 -8 9 C-9.65984798 9.68346682 -11.32836805 10.34588315 -13 11 C-14.83272907 12.27004909 -16.59591276 13.60223035 -18.3515625 14.9765625 C-20 16 -20 16 -23 16 C-23 16.66 -23 17.32 -23 18 C-23.99 18.33 -24.98 18.66 -26 19 C-26.33 19.66 -26.66 20.32 -27 21 C-28.671875 21.96484375 -28.671875 21.96484375 -30.75 22.9375 C-36.78642039 25.44381261 -36.78642039 25.44381261 -41 30 C-43.5625 30.625 -43.5625 30.625 -46 31 C-46 31.66 -46 32.32 -46 33 C-42.7 33.33 -39.4 33.66 -36 34 C-36 34.33 -36 34.66 -36 35 C-45.405 35.495 -45.405 35.495 -55 36 C-49.37336081 31.49868865 -49.37336081 31.49868865 -46.56640625 29.6953125 C-45.92848145 29.2837793 -45.29055664 28.87224609 -44.63330078 28.44824219 C-43.94993652 28.01157227 -43.26657227 27.57490234 -42.5625 27.125 C-41.83530762 26.65739258 -41.10811523 26.18978516 -40.35888672 25.70800781 C-37.90849109 24.13462289 -35.45476665 22.56655621 -33 21 C-32.08750488 20.41766602 -31.17500977 19.83533203 -30.23486328 19.23535156 C-24.72568603 15.72206191 -19.21217589 12.21563458 -13.69628906 8.71289062 C-9.12905429 5.81143108 -4.56458172 2.90563093 0 0 Z " fill="#1C46AB" transform="translate(282,73)"/>
<path d="M0 0 C4.44380808 1.13273539 8.26436721 2.28317615 12 5 C12 5.66 12 6.32 12 7 C12.57363281 7.10828125 13.14726562 7.2165625 13.73828125 7.328125 C16.30933984 8.0918937 18.00035502 9.20425819 20.1875 10.75 C24.63913014 13.81142006 29.23765639 16.45558001 34 19 C34 19.66 34 20.32 34 21 C34.9075 21.0825 35.815 21.165 36.75 21.25 C40.54517398 22.12580938 41.38104623 23.22232176 44 26 C46.27907018 27.45840716 48.61470146 28.71560848 51 30 C51 30.66 51 31.32 51 32 C51.99 32.33 52.98 32.66 54 33 C53.505 33.99 53.505 33.99 53 35 C51.65364583 34.14322917 50.30729167 33.28645833 48.9609375 32.4296875 C47.64065552 31.58954102 47.64065552 31.58954102 46.29370117 30.73242188 C44.32763788 29.48124584 42.36165644 28.22994118 40.39575195 26.97851562 C35.25139604 23.70405397 30.10579223 20.43159399 24.95703125 17.1640625 C23.98910645 16.54934082 23.02118164 15.93461914 22.02392578 15.30126953 C20.1829658 14.13216962 18.34152261 12.96383013 16.49951172 11.79638672 C12.27023288 9.10939076 8.05369504 6.40352616 3.86328125 3.65625 C3.11989502 3.16962891 2.37650879 2.68300781 1.6105957 2.18164062 C1.07909912 1.79169922 0.54760254 1.40175781 0 1 C0 0.67 0 0.34 0 0 Z " fill="#1744B1" transform="translate(180,405)"/>
<path d="M0 0 C0 0.66 0 1.32 0 2 C-1.58941406 2.39832031 -1.58941406 2.39832031 -3.2109375 2.8046875 C-4.59905163 3.16109518 -5.98706743 3.51788596 -7.375 3.875 C-8.42300781 4.13603516 -8.42300781 4.13603516 -9.4921875 4.40234375 C-13.64874736 5.44145274 -13.64874736 5.44145274 -17 8 C-17.74521665 9.89177392 -17.74521665 9.89177392 -18.359375 12.0625 C-19.91412035 16.94104932 -21.98984493 21.41436746 -24.25 26 C-28.53892728 34.85966049 -32.35937075 43.85745517 -36 53 C-36.66 53 -37.32 53 -38 53 C-35.87469289 44.35734877 -32.24118385 36.46783122 -28.52978516 28.42114258 C-27.49558646 26.17792686 -26.47168112 23.93022656 -25.44921875 21.68164062 C-24.7896558 20.23931187 -24.12951973 18.79724504 -23.46875 17.35546875 C-23.16553833 16.690811 -22.86232666 16.02615326 -22.54992676 15.34135437 C-19.03780152 7.74593899 -16.78094123 4.0513495 -9 1 C-5.74926494 0.11343589 -3.42323955 0 0 0 Z " fill="#1747B0" transform="translate(197,139)"/>
<path d="M0 0 C1.79244141 0.01740234 1.79244141 0.01740234 3.62109375 0.03515625 C5.41740234 0.04869141 5.41740234 0.04869141 7.25 0.0625 C8.17683594 0.07410156 9.10367188 0.08570313 10.05859375 0.09765625 C10.05859375 0.75765625 10.05859375 1.41765625 10.05859375 2.09765625 C11.37859375 2.09765625 12.69859375 2.09765625 14.05859375 2.09765625 C14.14109375 2.71640625 14.22359375 3.33515625 14.30859375 3.97265625 C14.87117834 6.28203192 14.87117834 6.28203192 17.12109375 7.34765625 C17.76046875 7.59515625 18.39984375 7.84265625 19.05859375 8.09765625 C18.72859375 9.08765625 18.39859375 10.07765625 18.05859375 11.09765625 C17.47851562 10.67613281 16.8984375 10.25460937 16.30078125 9.8203125 C10.23251731 5.53162923 10.23251731 5.53162923 3.05859375 4.09765625 C2.37796875 4.06027344 1.69734375 4.02289063 0.99609375 3.984375 C-5.57719715 3.77895966 -11.94464413 4.68391802 -18.42578125 5.66015625 C-21.67406459 6.06438707 -24.67624502 6.3247979 -27.94140625 6.09765625 C-30.31640625 4.09765625 -30.31640625 4.09765625 -31.94140625 2.09765625 C-30.89533203 2.35675781 -30.89533203 2.35675781 -29.828125 2.62109375 C-26.65092197 3.14561171 -23.95838306 3.01148851 -20.75390625 2.72265625 C-19.62082031 2.62210937 -18.48773438 2.5215625 -17.3203125 2.41796875 C-16.20527344 2.31226563 -15.09023437 2.2065625 -13.94140625 2.09765625 C-12.43900391 1.97003906 -12.43900391 1.97003906 -10.90625 1.83984375 C-6.99140061 1.49060539 -3.60289495 0.11961803 0 0 Z " fill="#1749C1" transform="translate(151.94140625,306.90234375)"/>
<path d="M0 0 C10.90590026 -0.15999643 21.59944948 0.47274489 32.46679688 1.37695312 C33.65724609 1.47041016 34.84769531 1.56386719 36.07421875 1.66015625 C37.14244873 1.74918213 38.21067871 1.83820801 39.3112793 1.92993164 C42.101599 2.15548636 42.101599 2.15548636 45 1 C45.556875 1.433125 46.11375 1.86625 46.6875 2.3125 C49.95087007 4.69387816 53.06347766 5.14708683 57 6 C57 6.66 57 7.32 57 8 C56.2152832 7.87375244 55.43056641 7.74750488 54.62207031 7.61743164 C46.68173235 6.36446844 38.73995392 5.31651661 30.75 4.4375 C29.58428467 4.30819092 28.41856934 4.17888184 27.2175293 4.0456543 C18.15442054 3.06702639 9.10716725 2.37250755 0 2 C0 1.34 0 0.68 0 0 Z " fill="#1548B4" transform="translate(301,106)"/>
<path d="M0 0 C0.92232422 0.63228516 0.92232422 0.63228516 1.86328125 1.27734375 C3.07564453 2.09912109 3.07564453 2.09912109 4.3125 2.9375 C5.11300781 3.48277344 5.91351563 4.02804687 6.73828125 4.58984375 C9.0258143 6.13837326 9.0258143 6.13837326 12 7 C13.00421047 7.99577173 14.00364295 8.99637027 15 10 C16.53678649 10.9990477 18.10250016 11.95435645 19.6875 12.875 C22.87023823 14.74122097 26.0197166 16.63269936 29.125 18.625 C32.95605742 21.04091172 36.9215273 23.03359352 41 25 C41 25.66 41 26.32 41 27 C41.70125 27.2475 42.4025 27.495 43.125 27.75 C46.37002459 29.16088026 49.10316737 30.97895398 52 33 C51.34 33.66 50.68 34.32 50 35 C45.55015621 32.19444029 41.1018942 29.38642858 36.65625 26.57421875 C32.82766179 24.15252946 28.99352824 21.73992335 25.15625 19.33203125 C23.2290627 18.11735244 21.30197712 16.90251221 19.375 15.6875 C18.4763623 15.12595215 17.57772461 14.5644043 16.65185547 13.98583984 C4.90143352 6.55751254 4.90143352 6.55751254 0 2 C0 1.34 0 0.68 0 0 Z M41 24 C43 25 43 25 43 25 Z " fill="#1644B1" transform="translate(31,308)"/>
<path d="M0 0 C4.0413951 0.57734216 6.55883386 1.84689467 10 4 C11.28254242 4.79168233 12.56509533 5.58334765 13.84765625 6.375 C15.25291519 7.24950041 16.6578563 8.12451172 18.0625 9 C18.76955078 9.43828125 19.47660156 9.8765625 20.20507812 10.328125 C23.00119877 12.07143402 25.71457037 13.77590635 28.30859375 15.8125 C30.06477555 17.28730174 30.06477555 17.28730174 33 17 C33 17.66 33 18.32 33 19 C33.66 19 34.32 19 35 19 C35 19.66 35 20.32 35 21 C35.66 21 36.32 21 37 21 C37 21.66 37 22.32 37 23 C37.721875 23.0825 38.44375 23.165 39.1875 23.25 C42.55313254 24.14750201 44.41612816 25.7114278 47 28 C46.67 28.66 46.34 29.32 46 30 C40.62578795 26.61163998 35.25422273 23.21913219 29.88476562 19.82324219 C27.93102542 18.58843076 25.9765766 17.35473994 24.02148438 16.12207031 C21.05418865 14.2508809 18.08939608 12.37577885 15.125 10.5 C14.19284668 9.91331543 13.26069336 9.32663086 12.30029297 8.72216797 C8.01461765 6.00547501 3.8689307 3.30235089 0 0 Z " fill="#1844B4" transform="translate(275,466)"/>
<path d="M0 0 C4.59460946 0.54697732 8.11613302 1.4383005 12 4 C16.87807404 10.30240512 20.15171743 17.97091345 23.6875 25.0625 C24.26822266 26.20783203 24.84894531 27.35316406 25.44726562 28.53320312 C28.15727359 33.9500861 30.66738469 39.07631 32 45 C31.34 45 30.68 45 30 45 C27.99702932 42.21325819 26.82875508 39.53314785 25.64453125 36.3046875 C24.08512942 32.0865465 22.17732068 28.12219259 20.125 24.125 C16.22682553 16.51562874 16.22682553 16.51562874 14.61328125 12.84765625 C12.22485629 7.29598425 12.22485629 7.29598425 7.4375 3.9375 C6.303125 3.628125 5.16875 3.31875 4 3 C3.195625 2.773125 2.39125 2.54625 1.5625 2.3125 C1.046875 2.209375 0.53125 2.10625 0 2 C0 1.34 0 0.68 0 0 Z " fill="#1841AB" transform="translate(354,141)"/>
<path d="M0 0 C1.32 0 2.64 0 4 0 C3.79375 0.556875 3.5875 1.11375 3.375 1.6875 C2.88802921 4.69048654 3.74058013 6.27125694 5 9 C5.33 9.99 5.66 10.98 6 12 C0.29370646 11.57202798 -3.41078616 9.15654048 -8 6 C-7.34 4.35 -6.68 2.7 -6 1 C-3.03 1.495 -3.03 1.495 0 2 C0 1.34 0 0.68 0 0 Z " fill="#1E54D8" transform="translate(90,338)"/>
<path d="M0 0 C0 0.33 0 0.66 0 1 C-1.99954746 1.04254356 -4.00041636 1.04080783 -6 1 C-6.33 0.67 -6.66 0.34 -7 0 C-18.87425466 -2.11118729 -18.87425466 -2.11118729 -30 1 C-32.76412454 5.79372648 -32.22335309 10.95982225 -32.125 16.3125 C-32.11597656 17.24384766 -32.10695313 18.17519531 -32.09765625 19.13476562 C-32.07418263 21.4234436 -32.04134729 23.71158672 -32 26 C-32.66 26 -33.32 26 -34 26 C-34.11681812 22.45861382 -34.187455 18.9177276 -34.25 15.375 C-34.28351563 14.37597656 -34.31703125 13.37695312 -34.3515625 12.34765625 C-34.42987184 6.43530075 -34.28418686 2.50276783 -30 -2 C-20.6047476 -7.20121173 -9.44432183 -3.08836217 0 0 Z " fill="#1A45AB" transform="translate(153,282)"/>
<path d="M0 0 C1 2 1 2 0.22265625 4.609375 C-0.54708275 6.69311291 -1.31790574 8.77645073 -2.08984375 10.859375 C-3.41325253 15.42598728 -3.39656279 19.46117094 -2 24 C2.9600338 24.94288183 7.84514574 25.30248211 12.875 25.5625 C14.050625 25.62727539 14.050625 25.62727539 15.25 25.69335938 C17.16650649 25.79853351 19.08323333 25.89967925 21 26 C20.01 29.3 19.02 32.6 18 36 C17.67 36 17.34 36 17 36 C16.875 29.25 16.875 29.25 18 27 C16.24623047 27.05220703 16.24623047 27.05220703 14.45703125 27.10546875 C12.90886859 27.13361716 11.36069032 27.16091619 9.8125 27.1875 C9.04357422 27.21263672 8.27464844 27.23777344 7.48242188 27.26367188 C2.81465489 27.32377188 -0.20792877 27.04102023 -4 24 C-7.02920704 17.94158593 -4.76229845 10.13016476 -2.8515625 4.03125 C-2 2 -2 2 0 0 Z " fill="#1945AA" transform="translate(84,236)"/>
<path d="M0 0 C4.65009042 1.63381555 4.65009042 1.63381555 6.34375 3.40625 C8.42457443 5.40855275 10.58978757 6.43924857 13.1875 7.6875 C14.08855469 8.12449219 14.98960937 8.56148438 15.91796875 9.01171875 C16.60503906 9.33785156 17.29210937 9.66398437 18 10 C18 10.66 18 11.32 18 12 C18.58644287 12.11931885 19.17288574 12.2386377 19.77709961 12.36157227 C22.0808714 13.02322666 23.59395578 13.87061727 25.56640625 15.21484375 C26.5419043 15.87323242 26.5419043 15.87323242 27.53710938 16.54492188 C28.20548828 17.00447266 28.87386719 17.46402344 29.5625 17.9375 C30.23474609 18.39318359 30.90699219 18.84886719 31.59960938 19.31835938 C32.85017657 20.16655937 34.09914446 21.01712581 35.34594727 21.87084961 C36.88989084 22.92483323 38.4445681 23.9630454 40 25 C39.67 25.66 39.34 26.32 39 27 C32.65486922 23.01854987 26.32460326 19.01396508 20 15 C19.05527832 14.40203613 18.11055664 13.80407227 17.13720703 13.18798828 C14.35731405 11.42467661 11.58412251 9.65127599 8.8125 7.875 C7.93368164 7.31917236 7.05486328 6.76334473 6.14941406 6.19067383 C5.34342773 5.67142334 4.53744141 5.15217285 3.70703125 4.6171875 C2.9900708 4.15940918 2.27311035 3.70163086 1.53442383 3.22998047 C0.77488403 2.62114014 0.77488403 2.62114014 0 2 C0 1.34 0 0.68 0 0 Z " fill="#1544B0" transform="translate(235,439)"/>
<path d="M0 0 C3.10076433 4.65114649 4.62224483 9.88168364 6.5 15.125 C6.90347656 16.2284375 7.30695313 17.331875 7.72265625 18.46875 C9.93147978 24.60680086 11.7542734 30.59534044 13 37 C12.34 37 11.68 37 11 37 C11 36.01 11 35.02 11 34 C10.01 33.67 9.02 33.34 8 33 C7.9175 32.113125 7.835 31.22625 7.75 30.3125 C6.61624253 22.39239425 4.12942351 14.82153387 0 8 C-0.75 4.25 -0.75 4.25 -1 1 C-0.67 0.67 -0.34 0.34 0 0 Z " fill="#1547B6" transform="translate(386,186)"/>
<path d="M0 0 C-0.33 0.99 -0.66 1.98 -1 3 C-3.0390625 3.84375 -3.0390625 3.84375 -5.625 4.5 C-6.5325 4.75523437 -7.44 5.01046875 -8.375 5.2734375 C-9.674375 5.63308594 -9.674375 5.63308594 -11 6 C-18.73028877 8.39905513 -23.62841063 13.8900126 -27.609375 20.7890625 C-28.06828125 21.51867187 -28.5271875 22.24828125 -29 23 C-29.66 23 -30.32 23 -31 23 C-31.33 24.32 -31.66 25.64 -32 27 C-32.64477539 25.20483398 -32.64477539 25.20483398 -33 23 C-32.10717773 21.34008789 -32.10717773 21.34008789 -30.68359375 19.72265625 C-30.16603516 19.12646484 -29.64847656 18.53027344 -29.11523438 17.91601562 C-28.56158203 17.30435547 -28.00792969 16.69269531 -27.4375 16.0625 C-26.91091797 15.45470703 -26.38433594 14.84691406 -25.84179688 14.22070312 C-16.61295037 3.74929467 -16.61295037 3.74929467 -10.375 2.8125 C-6.77072367 2.23708045 -3.50435695 0 0 0 Z " fill="#1138AF" transform="translate(382,288)"/>
<path d="M0 0 C3.80802445 1.4960096 5.69424557 3.66063151 8 7 C8.75 9.3125 8.75 9.3125 9 11 C9.66 11 10.32 11 11 11 C11.33773438 12.19238281 11.67546875 13.38476562 12.0234375 14.61328125 C12.47368467 16.17976618 12.92422058 17.74616815 13.375 19.3125 C13.59671875 20.09818359 13.8184375 20.88386719 14.046875 21.69335938 C14.37558594 22.8293457 14.37558594 22.8293457 14.7109375 23.98828125 C14.90993652 24.68477783 15.10893555 25.38127441 15.31396484 26.09887695 C16.01712196 28.2849698 16.01712196 28.2849698 18 31 C18 31.99 18 32.98 18 34 C17.34 34 16.68 34 16 34 C15.69296143 33.21874756 15.38592285 32.43749512 15.06958008 31.63256836 C13.91234883 28.70156783 12.74650407 25.77417934 11.57495117 22.84887695 C11.07219041 21.58851383 10.57276167 20.32681573 10.0769043 19.0637207 C7.34374649 12.10834329 4.73311598 5.8233767 0 0 Z " fill="#1748B1" transform="translate(391,130)"/>
<path d="M0 0 C4.16691238 0.3092771 8.33347856 0.62300347 12.5 0.9375 C13.67304688 1.02451172 14.84609375 1.11152344 16.0546875 1.20117188 C19.37121438 1.45270622 22.68583689 1.71911212 26 2 C27.28390625 2.10852295 27.28390625 2.10852295 28.59375 2.21923828 C30.40521049 2.40321474 32.20603532 2.68866875 34 3 C34.495 3.99 34.495 3.99 35 5 C33.48986328 4.90912109 33.48986328 4.90912109 31.94921875 4.81640625 C20.96864313 4.16055406 9.98551228 3.56676079 -1 3 C-0.67 2.01 -0.34 1.02 0 0 Z " fill="#1A49AC" transform="translate(390,308)"/>
<path d="M0 0 C1.65 0 3.3 0 5 0 C5 0.66 5 1.32 5 2 C6.32 1.67 7.64 1.34 9 1 C9 1.66 9 2.32 9 3 C10.65 3.33 12.3 3.66 14 4 C13.67 4.99 13.34 5.98 13 7 C13.66 7 14.32 7 15 7 C15 6.34 15 5.68 15 5 C15.66 5 16.32 5 17 5 C16.67 6.32 16.34 7.64 16 9 C16.78375 9.309375 17.5675 9.61875 18.375 9.9375 C21 11 21 11 23 12 C23 12.66 23 13.32 23 14 C23.66 14 24.32 14 25 14 C24.67 14.66 24.34 15.32 24 16 C20.3723272 13.71254334 16.74833074 11.41932715 13.125 9.125 C12.09246094 8.47402344 11.05992187 7.82304687 9.99609375 7.15234375 C8.51689453 6.21455078 8.51689453 6.21455078 7.0078125 5.2578125 C6.09660645 4.6817627 5.18540039 4.10571289 4.24658203 3.51220703 C2 2 2 2 0 0 Z " fill="#184ABB" transform="translate(333,503)"/>
<path d="M0 0 C10.86649482 1.91282868 21.28773574 6.19152682 30 13 C30.99 14.485 30.99 14.485 32 16 C28.82686065 14.87404733 26.01514877 13.44912338 23.125 11.75 C15.87639218 7.63592529 7.89536487 4.63178829 0 2 C0 1.34 0 0.68 0 0 Z " fill="#1545AD" transform="translate(359,113)"/>
<path d="M0 0 C0.33 0.66 0.66 1.32 1 2 C-0.44750596 6.09842865 -2.26111412 10.01328602 -4 14 C-14.89 14.495 -14.89 14.495 -26 15 C-26 14.34 -26 13.68 -26 13 C-23.26750659 12.24722485 -20.71899317 11.83358297 -17.890625 11.68359375 C-16.75947266 11.62075195 -16.75947266 11.62075195 -15.60546875 11.55664062 C-14.82816406 11.51732422 -14.05085938 11.47800781 -13.25 11.4375 C-12.45722656 11.39431641 -11.66445312 11.35113281 -10.84765625 11.30664062 C-8.89862185 11.20097009 -6.94933252 11.10002034 -5 11 C-4.68361572 10.12275269 -4.68361572 10.12275269 -4.36083984 9.2277832 C-3.1344402 5.82731146 -2.02395768 3.03593652 0 0 Z " fill="#1344B5" transform="translate(122,210)"/>
<path d="M0 0 C0.33 0 0.66 0 1 0 C1.04966586 5.14118055 1.08584495 10.28221951 1.10986328 15.42358398 C1.11988268 17.17035355 1.13350195 18.9171065 1.15087891 20.66381836 C1.17530669 23.18347285 1.18652389 25.70290439 1.1953125 28.22265625 C1.20563507 28.99585709 1.21595764 29.76905792 1.22659302 30.56568909 C1.22758391 35.42129596 0.54272894 39.39049673 -1 44 C-1.66 44 -2.32 44 -3 44 C-3.25 36.375 -3.25 36.375 -1 33 C-0.76006345 30.46413152 -0.62746781 28.02783969 -0.5859375 25.48828125 C-0.56657135 24.76005661 -0.5472052 24.03183197 -0.5272522 23.28153992 C-0.46753624 20.95864525 -0.42110383 18.63570081 -0.375 16.3125 C-0.33681279 14.73630668 -0.29776062 13.16013405 -0.2578125 11.58398438 C-0.16184152 7.72282465 -0.07778151 3.86156724 0 0 Z " fill="#114ABD" transform="translate(433,463)"/>
<path d="M0 0 C0.66 0 1.32 0 2 0 C2.33 1.65 2.66 3.3 3 5 C-15.82004556 7.48063781 -15.82004556 7.48063781 -25 6 C-25 5.67 -25 5.34 -25 5 C-24.19175781 4.93941406 -23.38351562 4.87882813 -22.55078125 4.81640625 C-20.94783203 4.69072266 -20.94783203 4.69072266 -19.3125 4.5625 C-18.25675781 4.48128906 -17.20101563 4.40007812 -16.11328125 4.31640625 C-13.34499343 4.03506207 -10.71923958 3.57199363 -8 3 C-6.7625 2.855625 -5.525 2.71125 -4.25 2.5625 C-2.64125 2.2840625 -2.64125 2.2840625 -1 2 C-0.67 1.34 -0.34 0.68 0 0 Z " fill="#1447BC" transform="translate(398,224)"/>
<path d="M0 0 C1.32 0.33 2.64 0.66 4 1 C4 1.99 4 2.98 4 4 C9.28 4.33 14.56 4.66 20 5 C19.67 5.66 19.34 6.32 19 7 C11.34656456 7.3150042 4.92158617 7.52609107 -2 4 C-2.66 3.01 -3.32 2.02 -4 1 C-2.68 1.33 -1.36 1.66 0 2 C0 1.34 0 0.68 0 0 Z " fill="#1548BA" transform="translate(354,314)"/>
<path d="M0 0 C0.72469482 0.16749756 1.44938965 0.33499512 2.19604492 0.50756836 C4.88922977 0.98054649 7.14313488 1.03685023 9.86328125 0.87890625 C11.19262695 0.80639648 11.19262695 0.80639648 12.54882812 0.73242188 C13.46083984 0.67634766 14.37285156 0.62027344 15.3125 0.5625 C16.24384766 0.51029297 17.17519531 0.45808594 18.13476562 0.40429688 C20.42356353 0.2751852 22.71186186 0.14024585 25 0 C25 0.66 25 1.32 25 2 C22.62561751 2.3383344 20.25065041 2.67079002 17.875 3 C16.87726563 3.14308594 16.87726563 3.14308594 15.859375 3.2890625 C11.87906536 3.83537951 8.01466577 4.28338817 4 4 C1.625 2 1.625 2 0 0 Z " fill="#1646B0" transform="translate(120,309)"/>
<path d="M0 0 C2.65351263 1.32675631 2.7600952 2.44229087 3.8125 5.1875 C4.15410156 6.07824219 4.49570312 6.96898437 4.84765625 7.88671875 C11 24.50847458 11 24.50847458 11 27 C10.34 27 9.68 27 9 27 C7.49485354 22.87685942 5.99675628 18.75119298 4.5 14.625 C4.07074219 13.449375 3.64148438 12.27375 3.19921875 11.0625 C2.79316406 9.94101563 2.38710938 8.81953125 1.96875 7.6640625 C1.59169922 6.62717285 1.21464844 5.5902832 0.82617188 4.52197266 C0 2 0 2 0 0 Z " fill="#1543AB" transform="translate(413,178)"/>
<path d="M0 0 C3 3.75 3 3.75 3 6 C3.99 6 4.98 6 6 6 C6.81434143 8.85160391 7.11881242 11.36626131 7.09765625 14.328125 C7.09443359 15.12734375 7.09121094 15.9265625 7.08789062 16.75 C7.07951172 17.575 7.07113281 18.4 7.0625 19.25 C7.05798828 20.09046875 7.05347656 20.9309375 7.04882812 21.796875 C7.03707961 23.86461401 7.01914522 25.93231624 7 28 C6.67 28 6.34 28 6 28 C5.94392578 26.60587891 5.94392578 26.60587891 5.88671875 25.18359375 C5.45766399 15.68052298 5.45766399 15.68052298 2 7 C1.34 6.67 0.68 6.34 0 6 C-0.6875 4.0625 -0.6875 4.0625 -1 2 C-0.67 1.34 -0.34 0.68 0 0 Z " fill="#134DCB" transform="translate(426,31)"/>
<path d="M0 0 C6.6 0 13.2 0 20 0 C19.01 3.3 18.02 6.6 17 10 C16.67 10 16.34 10 16 10 C15.875 3.25 15.875 3.25 17 1 C11.39 1 5.78 1 0 1 C0 0.67 0 0.34 0 0 Z " fill="#1247B5" transform="translate(85,262)"/>
<path d="M0 0 C0.66 0 1.32 0 2 0 C4.66038099 5.5626148 5.96232949 10.93267948 7 17 C8.32 17.33 9.64 17.66 11 18 C9.35 18 7.7 18 6 18 C4.99600476 15.37646482 3.99665555 12.75132205 3 10.125 C2.57074219 9.00544922 2.57074219 9.00544922 2.1328125 7.86328125 C0 2.2265625 0 2.2265625 0 0 Z " fill="#1847B2" transform="translate(423,206)"/>
<path d="M0 0 C0.99 0.680625 0.99 0.680625 2 1.375 C5.65206954 3.35320433 8.95052557 4.10774292 13 5 C13 5.66 13 6.32 13 7 C8.71 6.34 4.42 5.68 0 5 C0 4.34 0 3.68 0 3 C-0.66 3 -1.32 3 -2 3 C-1 1 -1 1 0 0 Z " fill="#184BC5" transform="translate(345,107)"/>
<path d="M0 0 C-0.33 0.99 -0.66 1.98 -1 3 C-6.31618644 5.38311806 -12.23826782 6.37372476 -18 7 C-15.69555966 4.29798849 -14.03615218 3.54084937 -10.5625 2.9375 C-6.93374113 2.29279665 -3.54513952 0 0 0 Z " fill="#1746B2" transform="translate(382,288)"/>
<path d="M0 0 C0 0.66 0 1.32 0 2 C-5.34902924 2.59198743 -10.60884846 3.14187241 -16 3 C-16 2.34 -16 1.68 -16 1 C-10.59255982 0.22750855 -5.46137814 -0.09752461 0 0 Z " fill="#1549B8" transform="translate(214,137)"/>
<path d="M0 0 C0.66 0.66 1.32 1.32 2 2 C1.0925 2.53625 0.185 3.0725 -0.75 3.625 C-4.11617302 5.83728392 -5.89619844 8.57158264 -8 12 C-8.33 12 -8.66 12 -9 12 C-8.67 9.36 -8.34 6.72 -8 4 C-7.236875 3.71125 -6.47375 3.4225 -5.6875 3.125 C-2.84970692 2.03730987 -2.84970692 2.03730987 0 0 Z " fill="#0F42B7" transform="translate(94,224)"/>
<path d="M0 0 C4.75 1.875 4.75 1.875 7 3 C7 3.66 7 4.32 7 5 C9.97 5.495 9.97 5.495 13 6 C13 6.66 13 7.32 13 8 C8.01251998 7.5250019 4.93035563 6.10772305 1 3 C0.67 2.01 0.34 1.02 0 0 Z " fill="#1243C1" transform="translate(207,421)"/>
<path d="M0 0 C0.680625 0.309375 1.36125 0.61875 2.0625 0.9375 C5.36965912 2.13370649 8.51545878 2.59005397 12 3 C12 3.66 12 4.32 12 5 C4.73846154 5.49230769 4.73846154 5.49230769 1 3 C0.34 2.34 -0.32 1.68 -1 1 C-0.67 0.67 -0.34 0.34 0 0 Z " fill="#1547B5" transform="translate(172,317)"/>
<path d="M0 0 C4.54805635 -0.17835515 7.8794254 0.00214565 12 2 C12 2.66 12 3.32 12 4 C10.5608866 3.71640113 9.12374482 3.42278601 7.6875 3.125 C6.88699219 2.96257812 6.08648437 2.80015625 5.26171875 2.6328125 C3 2 3 2 0 0 Z " fill="#1148B9" transform="translate(176,293)"/>
<path d="M0 0 C0.721875 0.45375 1.44375 0.9075 2.1875 1.375 C4.74894081 2.85494358 7.23277989 3.97217539 10 5 C10 5.99 10 6.98 10 8 C6.37 6.02 2.74 4.04 -1 2 C-0.67 1.34 -0.34 0.68 0 0 Z " fill="#1647B0" transform="translate(323,495)"/>
<path d="M0 0 C4.455 0.99 4.455 0.99 9 2 C9 2.66 9 3.32 9 4 C8.34 4 7.68 4 7 4 C6.67 4.66 6.34 5.32 6 6 C5.01 6 4.02 6 3 6 C2.01 4.02 1.02 2.04 0 0 Z " fill="#1653D0" transform="translate(144,281)"/>
<path d="M0 0 C0.33 0 0.66 0 1 0 C1.02694851 1.95825873 1.04637218 3.91662226 1.0625 5.875 C1.07410156 6.96554688 1.08570313 8.05609375 1.09765625 9.1796875 C1 12 1 12 0 14 C-0.66 14 -1.32 14 -2 14 C-2.33 12.35 -2.66 10.7 -3 9 C-2.34 9 -1.68 9 -1 9 C-0.67 6.03 -0.34 3.06 0 0 Z " fill="#1250D9" transform="translate(432,208)"/>
<path d="M0 0 C1.65 0 3.3 0 5 0 C5 0.66 5 1.32 5 2 C2.03 3.65 -0.94 5.3 -4 7 C-4 6.34 -4 5.68 -4 5 C-3.34 5 -2.68 5 -2 5 C-2 4.34 -2 3.68 -2 3 C-1.34 3 -0.68 3 0 3 C0 2.01 0 1.02 0 0 Z " fill="#1448BA" transform="translate(382,310)"/>
<path d="M0 0 C5.61 0.33 11.22 0.66 17 1 C17 1.33 17 1.66 17 2 C11.06 2.33 5.12 2.66 -1 3 C-0.67 2.01 -0.34 1.02 0 0 Z " fill="#1047BE" transform="translate(390,308)"/>
<path d="M0 0 C3.80802445 1.4960096 5.69424557 3.66063151 8 7 C8.75 9.3125 8.75 9.3125 9 11 C8.34 11 7.68 11 7 11 C5.52734375 9.1015625 5.52734375 9.1015625 3.9375 6.625 C3.41027344 5.81289062 2.88304687 5.00078125 2.33984375 4.1640625 C1 2 1 2 0 0 Z " fill="#113CA3" transform="translate(391,130)"/>
<path d="M0 0 C2.97 0.495 2.97 0.495 6 1 C6 1.66 6 2.32 6 3 C8.475 3.99 8.475 3.99 11 5 C7.37673261 6.2077558 6.35853631 5.54311128 3 4 C3 3.01 3 2.02 3 1 C2.01 0.67 1.02 0.34 0 0 Z " fill="#154CC6" transform="translate(369,524)"/>
<path d="M0 0 C5.61 0.33 11.22 0.66 17 1 C17 1.33 17 1.66 17 2 C14.73122896 2.24875561 12.45980265 2.47339246 10.1875 2.6875 C8.92292969 2.81511719 7.65835937 2.94273437 6.35546875 3.07421875 C3 3 3 3 0 0 Z " fill="#0F4AC6" transform="translate(380,417)"/>
<path d="M0 0 C4.87362847 0.45336079 7.39042389 1.7089159 11 5 C10.67 5.66 10.34 6.32 10 7 C8.33073546 6.02526874 6.66464358 5.04510211 5 4.0625 C4.071875 3.51722656 3.14375 2.97195313 2.1875 2.41015625 C1.465625 1.94480469 0.74375 1.47945313 0 1 C0 0.67 0 0.34 0 0 Z " fill="#1144AE" transform="translate(82,343)"/>
<path d="M0 0 C-1.65 0.33 -3.3 0.66 -5 1 C-5 1.66 -5 2.32 -5 3 C-4.01 3.33 -3.02 3.66 -2 4 C-4.31 4 -6.62 4 -9 4 C-8 1 -8 1 -6.1875 -0.25 C-3.66056586 -1.11637742 -2.47778006 -0.88492145 0 0 Z " fill="#0F46B4" transform="translate(241,103)"/>
<path d="M0 0 C0.99 0.33 1.98 0.66 3 1 C2.01 2.485 2.01 2.485 1 4 C0.34 4 -0.32 4 -1 4 C-1.33 5.32 -1.66 6.64 -2 8 C-2.6875 6.25 -2.6875 6.25 -3 4 C-1.5625 1.75 -1.5625 1.75 0 0 Z " fill="#1545AA" transform="translate(352,307)"/>
<path d="M0 0 C0.33 0.66 0.66 1.32 1 2 C0.06553465 4.03144641 -0.93224776 6.03533587 -2 8 C-2.66 6.68 -3.32 5.36 -4 4 C-2.68 2.68 -1.36 1.36 0 0 Z " fill="#1F4EA8" transform="translate(138,165)"/>
<path d="M0 0 C1.32 0.66 2.64 1.32 4 2 C3.67 3.32 3.34 4.64 3 6 C1.68 5.34 0.36 4.68 -1 4 C-0.67 2.68 -0.34 1.36 0 0 Z " fill="#104CC3" transform="translate(421,22)"/>
<path d="M0 0 C0.66 0.33 1.32 0.66 2 1 C1.34 2.32 0.68 3.64 0 5 C-0.66 5 -1.32 5 -2 5 C-2.33 5.66 -2.66 6.32 -3 7 C-3.33 5.68 -3.66 4.36 -4 3 C-3.01 3 -2.02 3 -1 3 C-0.67 2.01 -0.34 1.02 0 0 Z " fill="#174DDA" transform="translate(162,189)"/>
<path d="M0 0 C5.75 -0.125 5.75 -0.125 8 1 C8 1.66 8 2.32 8 3 C5.36 2.67 2.72 2.34 0 2 C0 1.34 0 0.68 0 0 Z " fill="#1642A3" transform="translate(350,111)"/>
</svg>
